<svg width="364" height="364" viewBox="0 0 364 364" fill="none" xmlns="http://www.w3.org/2000/svg">
<path d="M310.888 182C310.888 110.817 253.183 53.1117 182 53.1117C110.817 53.1117 53.1117 110.817 53.1117 182C53.1117 253.183 110.817 310.888 182 310.888C253.183 310.888 310.888 253.183 310.888 182ZM182 52.3117C253.625 52.3117 311.688 110.375 311.688 182C311.688 253.625 253.625 311.688 182 311.688C110.375 311.688 52.3117 253.625 52.3117 182C52.3117 110.375 110.375 52.3117 182 52.3117ZM336.043 182C336.043 96.9243 267.076 27.9569 182 27.9569C96.9243 27.9569 27.9568 96.9243 27.9568 182C27.9568 267.076 96.9243 336.043 182 336.043C267.076 336.043 336.043 267.076 336.043 182ZM182 27.1569C267.517 27.1569 336.843 96.4825 336.843 182C336.843 267.518 267.517 336.843 182 336.843C96.4825 336.843 27.1568 267.518 27.1568 182C27.1568 96.4825 96.4825 27.1569 182 27.1569ZM363.6 182C363.6 81.7051 282.295 0.399994 182 0.399994C81.7051 0.399994 0.4 81.7051 0.4 182C0.4 282.295 81.7051 363.6 182 363.6C282.295 363.6 363.6 282.295 363.6 182ZM256.548 182C256.548 140.828 223.172 107.452 182 107.452C140.828 107.452 107.452 140.828 107.452 182C107.452 223.172 140.828 256.548 182 256.548C223.172 256.548 256.548 223.172 256.548 182ZM182 106.652C223.614 106.652 257.348 140.386 257.348 182C257.348 223.614 223.614 257.348 182 257.348C140.386 257.348 106.652 223.614 106.652 182C106.652 140.386 140.386 106.652 182 106.652ZM283.685 182C283.685 125.841 238.159 80.3151 182 80.3151C125.841 80.3151 80.3151 125.841 80.3151 182C80.3151 238.159 125.841 283.685 182 283.685C238.159 283.685 283.685 238.159 283.685 182ZM182 79.5151C238.601 79.5151 284.485 125.399 284.485 182C284.485 238.601 238.601 284.485 182 284.485C125.399 284.485 79.5151 238.601 79.5151 182C79.5151 125.399 125.399 79.5151 182 79.5151Z" stroke="black" stroke-width="0.8"/>
</svg>
