<svg width="320" height="308" viewBox="0 0 320 308" fill="none" xmlns="http://www.w3.org/2000/svg">
<path d="M300.529 3.73827C298.327 4.36668 296.013 4.50223 293.752 4.13526C291.492 3.76828 289.341 2.90792 287.453 1.61569C284.55 -0.398429 280.784 -0.420206 276.264 1.54182C272.542 3.16093 269.115 5.77413 266.901 7.68841C266.293 8.21447 265.522 8.51481 264.717 8.53854C263.912 8.56227 263.124 8.30798 262.486 7.81866L262.364 7.72317C260.169 6.05341 257.466 5.18197 254.705 5.25383C251.944 5.32569 249.291 6.33649 247.187 8.11814C224.634 27.1784 206.715 40.1356 192.401 47.732C182.223 53.1319 173.868 55.7971 167.042 55.7971C165.456 55.8033 163.874 55.6447 162.321 55.324C151.424 53.0147 146.434 42.5968 141.124 31.5713C138.396 25.8979 135.571 20.0292 131.823 14.9766C127.591 9.26848 122.73 5.42689 116.973 3.25651C114.893 3.25599 112.833 3.66442 110.912 4.45848C108.991 5.25255 107.247 6.41658 105.779 7.88373C100.492 13.1273 95.2396 17.0948 90.1575 19.6818C85.0754 22.269 79.9057 23.5886 74.976 23.4801C70.4691 23.3531 66.0556 22.1741 62.091 20.0378C57.8586 17.8198 53.648 14.4817 49.5773 10.1106L49.355 9.88051C48.0101 8.47363 46.3588 7.39349 44.528 6.72361C42.6973 6.05373 40.7368 5.812 38.7975 6.01717C36.8211 6.2131 34.9171 6.85867 33.2303 7.90407C31.5444 8.94947 30.1221 10.3668 29.0728 12.0466C26.7764 15.6971 24.5095 18.4101 22.3301 20.116C20.1508 21.8218 18.032 22.5556 15.979 22.3385C13.4384 22.0651 10.9491 20.2983 8.56928 17.0861C6.18949 13.874 3.95371 9.27276 1.77856 3.23044L1.85266 3.20437C4.03203 9.22504 6.30738 13.8784 8.63496 17.0384C10.9625 20.1985 13.4603 21.9869 15.979 22.2474C18.0059 22.4644 20.1247 21.7221 22.2737 20.0422C24.4228 18.3624 26.7065 15.632 28.9945 11.9901C30.0489 10.2976 31.4796 8.86921 33.1764 7.81548C34.8733 6.7617 36.7908 6.11072 38.7807 5.913C40.7318 5.70723 42.7049 5.95053 44.5474 6.62409C46.3899 7.29766 48.0522 8.38348 49.4072 9.79799L49.6253 10.0324C53.6918 14.3948 57.9066 17.7286 62.1171 19.9424C66.0708 22.0738 70.4724 23.2485 74.9668 23.3715C79.888 23.4713 84.992 22.1952 90.1137 19.5821C95.2354 16.9689 100.435 13.0363 105.714 7.80562C107.19 6.32909 108.944 5.15778 110.877 4.35919C112.808 3.56058 114.88 3.15046 116.973 3.15233C122.748 5.32272 127.621 9.1946 131.866 14.9201C135.619 19.9814 138.444 25.8501 141.176 31.5278C146.472 42.536 151.476 52.9366 162.317 55.2372C169.875 56.8432 179.699 54.369 192.34 47.6538C206.65 40.0618 224.565 27.1047 247.113 8.04872C249.23 6.26173 251.896 5.24803 254.67 5.17541C257.444 5.10279 260.16 5.97553 262.368 7.6493L262.491 7.74479C263.115 8.22073 263.884 8.4681 264.67 8.4452C265.456 8.42222 266.21 8.13041 266.805 7.61889C269.024 5.70461 272.472 3.08282 276.19 1.45937C280.736 -0.515677 284.528 -0.485312 287.457 1.54616C289.338 2.83342 291.482 3.68986 293.734 4.05387C295.987 4.41787 298.293 4.28046 300.486 3.65148C301.695 3.31713 302.944 3.14778 304.199 3.14799H319.934V3.22609H304.199C302.958 3.23098 301.724 3.40325 300.529 3.73827Z" fill="black"/>
<path d="M300.638 10.9788C298.438 11.6011 296.128 11.7378 293.87 11.3795C291.611 11.0211 289.459 10.1763 287.562 8.90384C280.396 3.93804 269.255 12.9668 267.111 14.8246C266.492 15.3459 265.714 15.6428 264.904 15.6664C264.094 15.6901 263.3 15.4392 262.651 14.9549L262.53 14.8637C260.335 13.241 257.657 12.3969 254.925 12.4662C252.192 12.5353 249.562 13.5138 247.453 15.2457C225.519 33.7851 207.962 46.4123 193.774 53.8524C183.619 59.1785 175.214 61.8003 168.271 61.8003C166.706 61.8076 165.144 61.6622 163.607 61.3663C152.231 59.1351 146.8 48.7 141.046 37.6484C135.293 26.5968 129.364 15.198 116.999 10.4925C112.845 10.5078 108.857 12.1222 105.87 14.9982C95.6707 25.1122 85.4931 30.2387 75.616 30.2343H75.0585C66.1356 30.0607 57.5966 25.6635 49.6859 17.1729L49.5553 17.0428L49.4636 16.9473C48.0893 15.5764 46.4244 14.5289 44.5912 13.8812C42.7587 13.2336 40.8034 13.0021 38.8682 13.204C36.9339 13.4057 35.0695 14.0356 33.4105 15.0476C31.7524 16.0595 30.3419 17.4279 29.2825 19.0525C24.7933 26.1887 20.3512 29.5745 16.08 29.1187C10.8488 28.5544 6.01097 22.269 1.74318 10.4535L1.90485 10.3971C6.14569 22.1606 10.923 28.4069 16.1019 28.9626C20.3032 29.3966 24.6838 26.0499 29.1343 18.9787C30.208 17.3317 31.6371 15.9444 33.3188 14.9186C34.9996 13.8928 36.8901 13.2544 38.8514 13.0501C40.8126 12.8457 42.7941 13.0807 44.6526 13.7378C46.5103 14.3948 48.1979 15.4572 49.5899 16.8474L49.6817 16.9386L49.808 17.0731C57.6926 25.5333 66.1878 29.9088 75.0585 30.0954H75.616C85.4451 30.0954 95.584 24.9863 105.748 14.9027C108.772 11.9915 112.811 10.3595 117.016 10.3493H117.047C129.482 15.0764 135.441 26.5229 141.198 37.5919C146.957 48.6609 152.344 59.005 163.638 61.2231C171.352 62.7337 181.187 60.2812 193.714 53.7223C207.888 46.2909 225.436 33.6678 247.361 15.1372C249.499 13.3808 252.166 12.3884 254.937 12.3184C257.708 12.2484 260.422 13.1048 262.647 14.7509L262.774 14.842C263.39 15.3023 264.146 15.5405 264.916 15.5176C265.687 15.4948 266.427 15.2121 267.015 14.7161C268.423 13.5094 272.145 10.497 276.412 8.69989C281.006 6.75955 284.798 6.78992 287.675 8.78669C291.262 11.2696 296.223 12.0552 300.621 10.8355C301.83 10.5089 303.077 10.3439 304.33 10.3449H319.996V10.5143H304.33C303.084 10.5042 301.843 10.6604 300.638 10.9788Z" fill="black"/>
<path d="M300.73 18.2235C296.323 19.4433 291.188 18.6575 287.653 16.1919C281.678 12.0509 272.049 17.8718 267.302 21.9652C266.673 22.4829 265.889 22.7765 265.073 22.7994C264.257 22.8222 263.457 22.5728 262.8 22.0911L262.674 22.0043C258.393 18.7357 251.816 18.9006 247.701 22.3775C226.391 40.3874 209.2 52.6848 195.152 59.9643C185.005 65.2166 176.552 67.8081 169.478 67.8081C167.944 67.8139 166.412 67.6816 164.902 67.413C153.002 65.273 147.135 54.8248 140.928 43.7429C135.005 33.1861 128.881 22.2691 117.016 17.7503C112.91 17.7503 108.673 19.4346 105.953 22.1302C96.1238 31.8752 85.6766 37.0103 75.6994 37.0103H75.1284C66.0354 36.8324 57.5057 32.5393 49.7819 24.2528L49.6682 24.1355C49.6337 24.1008 49.595 24.0661 49.5638 24.0314C46.9491 21.3054 43.1124 19.9772 39.0459 20.3896C34.9794 20.8019 31.4922 22.8768 29.4788 26.0759C25.3508 32.6435 21.1621 35.9598 17.008 35.9598C16.7284 35.9605 16.4497 35.9461 16.171 35.9164C10.7966 35.3391 5.78865 29.0277 1.69181 17.6853L1.93939 17.5941C6.00254 28.8541 10.9322 35.1047 16.2021 35.6733C20.5128 36.1378 24.9196 32.8649 29.2783 25.9544C31.3356 22.6858 34.8968 20.5675 39.0417 20.1464C43.1865 19.7254 47.1015 21.0798 49.7735 23.8665L50 24.0923C57.6716 32.3397 66.1272 36.5893 75.1545 36.7629C85.2404 36.9626 95.8282 31.8448 105.792 21.9652C108.564 19.2175 112.879 17.5072 117.059 17.5072H117.107C129.077 22.0563 135.231 33.0212 141.181 43.6257C147.362 54.6425 153.203 65.0517 164.98 67.17C181.5 70.139 207.74 55.8492 247.562 22.1909C251.768 18.6358 258.489 18.4666 262.865 21.809L262.987 21.8958C263.597 22.3425 264.339 22.5735 265.095 22.5523C265.852 22.5311 266.58 22.2588 267.163 21.7786C271.958 17.6375 281.726 11.7557 287.832 15.988C291.319 18.4014 296.362 19.1828 300.691 17.9847C301.901 17.6631 303.148 17.4997 304.4 17.4985H319.991V17.7633H304.4C303.162 17.7547 301.927 17.9094 300.73 18.2235Z" fill="black"/>
<path d="M300.826 25.4641C296.467 26.6751 291.214 25.8981 287.749 23.476C281.512 19.1352 271.021 26.0804 267.503 29.119C266.864 29.635 266.072 29.9273 265.25 29.9509C264.427 29.9744 263.62 29.7278 262.952 29.2492L262.9 29.2102L262.83 29.1581C258.715 26.0197 251.907 26.189 247.963 29.5227C212.391 59.5869 187.602 73.8245 170.637 73.8245C169.166 73.8295 167.697 73.7149 166.244 73.4816C153.791 71.4415 147.466 60.9628 140.767 49.8678C134.664 39.7842 128.388 29.3577 117.025 25.0213C112.941 25.0213 108.63 26.7012 106.032 29.2796C96.443 38.7902 85.9815 43.8038 75.7996 43.8038H75.189C66.0354 43.6215 57.3187 39.3155 49.8737 31.3458L49.6505 31.1331C47.136 28.5287 43.2084 27.1916 39.1545 27.604C35.1015 28.0164 31.5882 30.0739 29.6707 33.1211C25.4122 39.8927 20.7697 43.2178 16.2543 42.7316C10.6745 42.1326 5.61853 35.9687 1.63031 24.9084L1.96632 24.7913C5.88884 35.7126 10.8581 41.7983 16.2888 42.38C20.6476 42.8488 25.1849 39.5802 29.3651 32.9302C31.3398 29.7918 34.9836 27.6692 39.1158 27.2482C43.248 26.8271 47.3103 28.1858 49.904 30.89L50.0042 30.9811L50.1305 31.107C57.488 39.0029 66.1575 43.2611 75.1933 43.4478H75.7954C85.8989 43.4478 96.251 38.4733 105.775 29.0278C108.447 26.3799 112.871 24.687 117.051 24.687H117.117C128.615 29.0582 134.948 39.5499 141.09 49.6942C147.746 60.7154 154.026 71.129 166.318 73.1344C183.187 75.8951 209.064 61.9526 247.749 29.2579C251.881 25.7853 258.755 25.5943 263.066 28.8847L263.122 28.9237L263.188 28.9715C263.793 29.3947 264.518 29.6123 265.257 29.592C265.996 29.5716 266.709 29.3145 267.289 28.8586C270.112 26.4678 273.291 24.5302 276.713 23.1158C281.342 21.2796 285.235 21.31 287.972 23.2069C291.35 25.5509 296.48 26.3279 300.743 25.1472C301.953 24.8318 303.198 24.6727 304.448 24.674H319.969V25.0257H304.448C303.227 25.0181 302.009 25.1654 300.826 25.4641Z" fill="black"/>
<path d="M300.926 32.7086C296.611 33.9023 291.241 33.1036 287.85 30.764C282.074 26.7618 271.783 32.7261 267.708 36.2421C267.052 36.7426 266.255 37.0242 265.429 37.0467C264.603 37.0694 263.792 36.8318 263.109 36.368L263.057 36.3332L262.987 36.2811C258.968 33.2165 252.09 33.3815 248.22 36.6327C213.541 65.9459 189.075 79.8146 171.875 79.8146C170.453 79.8187 169.032 79.7171 167.626 79.5107C154.589 77.5878 147.784 67.0875 140.601 55.9664C134.372 46.3517 127.934 36.4113 117.064 32.2616C113.011 32.2616 108.626 33.9284 106.141 36.394C96.7823 45.6745 86.3562 50.5623 75.9394 50.5623H75.2851C65.9832 50.38 57.2354 46.1781 50.0042 38.4081L49.8998 38.3126C49.8602 38.2736 49.8173 38.2388 49.7819 38.1998C47.3238 35.6387 43.4055 34.3625 39.3213 34.7792C35.2371 35.1959 31.7667 37.1884 29.9192 40.127C26.0219 46.3213 21.6893 49.5639 17.3263 49.5639C17.0114 49.5638 16.6973 49.5464 16.3848 49.5117C10.6922 48.8997 5.44842 42.7228 1.6261 32.1183L2.06233 31.9664C5.82317 42.3843 10.9322 48.4613 16.4455 49.0691C20.9356 49.5509 25.4728 46.3777 29.5528 39.8926C31.4703 36.8541 35.1108 34.7618 39.2859 34.3364C43.4619 33.911 47.5672 35.2351 50.1347 37.8916C50.1651 37.9228 50.197 37.9518 50.2307 37.9784C50.2787 38.0218 50.3225 38.0609 50.3612 38.1042C57.5141 45.7788 66.149 49.9328 75.3288 50.1108C85.829 50.3192 96.395 45.4661 105.84 36.0814C108.412 33.5334 112.949 31.8188 117.125 31.8188H117.203C128.24 36.012 134.73 46.0261 141.002 55.7147C148.147 66.7445 154.898 77.1624 167.735 79.0593C184.947 81.5943 210.451 68.0034 247.975 36.2811C251.968 32.9039 259.134 32.7347 263.305 35.9165L263.353 35.9468L263.427 35.999C264.023 36.4095 264.735 36.6202 265.459 36.6007C266.183 36.5812 266.882 36.3324 267.455 35.8904C270.283 33.5369 273.468 31.6454 276.892 30.2866C281.569 28.4895 285.465 28.5242 288.15 30.3864C291.371 32.6175 296.707 33.4249 300.839 32.2658C302.046 31.9568 303.289 31.8008 304.535 31.8015H319.987V32.2356H304.535C303.317 32.2395 302.104 32.3985 300.926 32.7086Z" fill="black"/>
<path d="M301.026 39.949C296.824 41.1167 291.215 40.2962 287.972 38.052C282.109 33.989 271.23 40.5349 267.922 43.3825C267.257 43.8829 266.452 44.1637 265.62 44.1855C264.787 44.2073 263.969 43.969 263.279 43.5041L263.236 43.4736L263.157 43.4216C259.234 40.4308 252.26 40.5914 248.49 43.7645C214.705 72.318 190.566 85.8223 173.127 85.8223C171.767 85.8248 170.408 85.7376 169.059 85.5615C155.408 83.769 147.768 72.752 140.375 62.0998C134.024 52.9495 127.464 43.4866 117.068 39.5278C113.764 39.5278 108.974 40.7954 106.211 43.5344C97.0223 52.65 86.0733 57.5463 75.3415 57.338C65.8703 57.1513 57.1352 53.0537 50.0825 45.492C50.0539 45.4609 50.0236 45.4319 49.9908 45.4052C49.9461 45.3695 49.904 45.3303 49.8644 45.2881C47.467 42.7921 43.5529 41.555 39.4038 41.9805C35.3541 42.3884 31.8712 44.3244 30.0926 47.159C26.288 53.2056 21.9419 56.37 17.4527 56.37C17.1116 56.3707 16.7714 56.3519 16.4329 56.3136C10.544 55.6843 5.25644 49.6592 1.53854 39.3499L2.04466 39.1676C5.69266 49.2729 10.8185 55.172 16.4893 55.7798C21.1099 56.2746 25.643 53.1753 29.627 46.8725C31.4922 43.8991 35.1234 41.8719 39.3423 41.4421C43.6623 41.0081 47.7423 42.3103 50.24 44.9148C50.267 44.9456 50.2973 44.9732 50.331 44.9972C50.379 45.0407 50.427 45.0798 50.4657 45.1231C57.4139 52.5806 66.0185 56.6175 75.3373 56.7998C85.9251 57.0081 96.7343 52.1595 105.818 43.1524C108.704 40.2919 113.69 38.9896 117.107 38.9896H117.203C127.778 43.0091 134.398 52.5545 140.806 61.783C148.469 72.8258 155.704 83.2567 169.139 85.0189C177.42 86.1083 187.262 83.7169 199.213 77.7569C212.774 70.9724 228.784 59.7168 248.154 43.3434C252.077 40.027 259.396 39.8708 263.497 42.9875L263.541 43.0135L263.619 43.07C264.211 43.4594 264.908 43.6582 265.617 43.6396C266.325 43.621 267.011 43.3857 267.581 42.9658C271.552 39.5409 282.279 33.4378 288.286 37.6006C291.406 39.7709 296.825 40.5479 300.887 39.4237C302.095 39.1291 303.335 38.9833 304.579 38.9896H319.961V39.5278H304.561C303.37 39.5251 302.183 39.6665 301.026 39.949Z" fill="black"/>
<path d="M301.127 47.1939C296.973 48.3442 291.241 47.5281 288.076 45.336C282.257 41.3034 271.269 47.8189 268.139 50.5188C266.967 51.5302 264.687 51.591 263.449 50.6404H263.414L263.332 50.584C259.57 47.7148 252.356 47.8798 248.769 50.9139C230.026 66.7664 214.365 77.7051 200.931 84.338C190.766 89.3647 182.032 91.8386 174.377 91.8386C173.097 91.8395 171.818 91.7673 170.547 91.6214C156.245 89.9718 148.055 78.9292 140.135 68.2509C133.683 59.5693 127.019 50.5754 117.103 46.7815C113.664 46.7815 108.869 48.1315 106.315 50.6882C97.3532 59.5737 86.3907 64.3486 75.424 64.1446C65.7869 63.9536 57.061 59.9601 50.2004 52.5981C50.1735 52.5714 50.144 52.5467 50.1128 52.5243L49.9781 52.4028C47.6455 49.972 43.7364 48.7782 39.5166 49.2036C35.4543 49.616 32.0067 51.4912 30.2939 54.2129C26.6231 60.0469 22.1474 63.1982 17.584 63.1982C17.2286 63.1989 16.8733 63.1801 16.5196 63.1418C10.5356 62.4994 5.056 56.47 1.49979 46.6035L2.09261 46.3908C5.57976 56.023 10.8539 61.9004 16.5895 62.5168C21.2581 63.016 25.9394 59.9513 29.7575 53.8786C31.5756 50.992 35.1975 49.0083 39.4518 48.5785C43.8627 48.1444 47.9638 49.3989 50.4311 51.9687L50.5145 52.0381C50.565 52.0783 50.6131 52.1218 50.6577 52.1683C57.4013 59.4044 65.9705 63.3284 75.4332 63.5107C86.2215 63.7234 97.0265 59.0138 105.862 50.2542C108.556 47.5802 113.581 46.1825 117.155 46.1825H117.269C127.385 50.0283 134.124 59.1092 140.636 67.8862C148.482 78.456 156.589 89.3865 170.616 91.005C179.032 91.9778 188.857 89.6121 200.648 83.7822C214.034 77.1582 229.638 66.2498 248.355 50.4277C252.212 47.1721 259.688 46.9984 263.711 50.0804L263.746 50.1021L263.833 50.1629C264.416 50.5372 265.099 50.728 265.792 50.7101C266.486 50.6923 267.158 50.4668 267.721 50.063C270.947 47.2806 282.31 40.5915 288.434 44.8542C291.463 46.9507 296.959 47.7277 300.952 46.6208C302.161 46.3305 303.401 46.1847 304.644 46.1867H319.952V46.8161H304.644C303.461 46.805 302.28 46.9318 301.127 47.1939Z" fill="black"/>
<path d="M301.222 54.4386C297.644 55.4282 291.633 55.0159 288.185 52.6241C282.737 48.8433 271.788 54.6946 268.348 57.6594C267.185 58.6621 264.862 58.7228 263.619 57.7809H263.589L263.497 57.7202C259.827 54.9247 252.531 55.0853 249.035 58.0371C230.933 73.3382 215.69 83.9296 202.435 90.4146C192.248 95.4028 183.427 97.8507 175.603 97.8507C174.402 97.8507 173.227 97.7945 172.076 97.6813C157.091 96.1877 148.325 85.1238 139.848 74.4191C133.017 65.8027 126.571 57.6595 117.129 54.0479C113.69 54.0479 108.765 55.4717 106.407 57.807C97.8021 66.3409 86.544 71.1157 75.499 70.8944C70.7545 70.8186 66.075 69.7833 61.7448 67.8514C57.4147 65.9195 53.5242 63.1313 50.3091 59.6561L50.2307 59.5911C50.1785 59.5537 50.1305 59.5115 50.0867 59.4652C47.8467 57.1342 43.8451 55.9491 39.6261 56.3789C35.5545 56.7912 32.1465 58.6014 30.4985 61.2146C26.6282 67.3741 21.6893 70.4646 16.5979 69.9176C10.4261 69.2535 4.90361 63.3849 1.45182 53.8092L2.13138 53.5661C5.48802 62.8683 10.7882 68.5677 16.6771 69.1928C21.472 69.705 26.1659 66.7359 29.8838 60.8238C31.6278 58.0197 35.2623 56.0881 39.552 55.6496C43.9798 55.2155 48.2131 56.47 50.6013 58.9572L50.6754 59.0181C50.7318 59.0599 50.784 59.1063 50.832 59.157C53.9815 62.5598 57.7929 65.2901 62.0337 67.1824C66.2746 69.0746 70.8565 70.0893 75.5032 70.1651C86.3343 70.3778 97.419 65.6855 105.884 57.2905C108.499 54.7077 113.651 53.3186 117.186 53.3186H117.251L117.317 53.3403C126.976 57.0126 133.806 65.629 140.419 73.9633C148.804 84.5459 157.474 95.4933 172.15 96.9693C180.693 97.8373 190.497 95.4673 202.121 89.7764C215.32 83.3176 230.515 72.7609 248.568 57.4988C252.286 54.3561 260.045 54.1824 263.937 57.1515L263.968 57.1732C264.002 57.1899 264.034 57.2102 264.064 57.2339C265.014 57.9676 266.975 57.9155 267.878 57.1385C271.439 54.0696 282.828 48.0533 288.604 52.0554C291.781 54.2606 297.6 54.7207 301.035 53.7657C302.243 53.4786 303.481 53.3329 304.723 53.3317H319.978V54.0523H304.723C303.545 54.0452 302.37 54.1747 301.222 54.4386Z" fill="black"/>
<path d="M301.323 61.6788C297.783 62.6598 291.563 62.1738 288.294 59.9079C283.151 56.3441 272.128 61.718 268.558 64.7999C267.407 65.7896 264.997 65.8503 263.789 64.9214H263.763L263.659 64.8563C260.171 62.1824 252.639 62.343 249.3 65.1645C231.865 79.9231 217.046 90.1496 203.969 96.4745C193.748 101.423 184.835 103.854 176.831 103.854C175.759 103.854 174.701 103.806 173.663 103.719C157.971 102.417 148.583 91.3136 139.521 80.5872C132.638 72.4353 126.135 64.7391 117.16 61.3013C113.764 61.3013 108.752 62.7076 106.503 64.9387C98.3124 73.0559 87.3634 77.6746 76.3444 77.6746H75.5731C65.7482 77.4836 56.8303 73.5986 50.4228 66.7403L50.3571 66.6881C50.3007 66.6488 50.2476 66.6036 50.2004 66.5535C48.0211 64.2833 44.0152 63.1461 39.7398 63.5801C35.664 63.9925 32.2905 65.7505 30.7124 68.2464C26.9204 74.2758 21.9377 77.284 16.6771 76.7196C10.3259 76.0382 4.76044 70.3213 1.42149 61.0407L2.18864 60.763C5.37938 69.6094 10.832 75.2741 16.7731 75.9079C21.7028 76.4374 26.4101 73.5639 30.0278 67.8124C31.7364 65.095 35.3406 63.2068 39.6649 62.7684C44.176 62.3082 48.4396 63.5454 50.7891 65.9893L50.8497 66.0413C50.9103 66.0837 50.9676 66.1317 51.0198 66.1846C57.2615 72.8824 65.9882 76.6718 75.5907 76.8584C86.6442 77.0755 97.7019 72.5178 105.928 64.3702C108.372 61.9437 113.595 60.4938 117.235 60.4938H117.309L117.378 60.5198C126.588 64.0229 133.174 71.8059 140.148 80.0533C149.101 90.6536 158.363 101.614 173.71 102.903C182.363 103.624 192.14 101.28 203.595 95.7324C216.597 89.4385 231.369 79.2373 248.76 64.5351C252.409 61.4531 260.315 61.2795 264.138 64.1965C264.176 64.215 264.211 64.2383 264.243 64.2659C265.145 64.9561 267.141 64.9084 267.991 64.1747C269.691 62.7076 273.392 60.4982 277.493 59.1178C280.889 57.9718 285.596 57.0646 288.726 59.235C291.855 61.4054 297.705 61.8395 301.07 60.8846C302.277 60.6011 303.513 60.4555 304.753 60.4505H319.922V61.2665H304.753C303.598 61.2754 302.447 61.4137 301.323 61.6788Z" fill="black"/>
<path d="M301.423 68.9238C297.87 69.9048 291.546 69.3579 288.403 67.1875C283.26 63.6237 271.801 69.3144 268.767 71.9276C267.629 72.9129 265.149 72.9737 263.942 72.0447C263.9 72.0248 263.86 71.9999 263.824 71.9709C260.411 69.3664 252.818 69.5271 249.571 72.2705C232.811 86.4345 218.423 96.3135 205.578 102.482C195.291 107.418 186.255 109.835 178.048 109.835C177.149 109.835 176.256 109.805 175.376 109.748C158.861 108.655 148.84 97.5203 139.145 86.7423C132.228 79.0594 125.694 71.7972 117.177 68.5113C113.738 68.5373 108.695 69.9438 106.589 72.0274C98.5735 79.9403 87.7491 84.3866 76.4623 84.4025H75.6379C65.6522 84.2029 56.7301 80.4311 50.5314 73.7767L50.4749 73.7333C50.4118 73.6921 50.3529 73.6442 50.3006 73.5901C48.1819 71.385 44.1979 70.2867 39.8392 70.7252C35.76 71.1592 32.4295 72.8218 30.9171 75.2222C27.2598 81.0388 22.0952 84.0428 16.747 83.4696C10.3091 82.7752 4.54233 77.0756 1.36507 68.2162L2.23663 67.9123C5.31369 76.4376 10.7798 81.9157 16.8598 82.5668C21.8467 83.105 26.6973 80.2531 30.1625 74.7534C31.8189 72.1142 35.3937 70.278 39.7524 69.8353C44.3554 69.3665 48.6484 70.5688 50.9541 72.9693L51.0063 73.0084C51.0728 73.0522 51.1343 73.1032 51.1899 73.1603C57.2269 79.6412 65.9183 83.3133 75.6556 83.5044C81.2606 83.6018 86.8286 82.581 92.0312 80.5018C97.2345 78.4225 101.966 75.3271 105.949 71.398C108.303 69.0627 113.656 67.6216 117.282 67.6216H117.365L117.443 67.6518C126.2 70.9812 132.825 78.3432 139.838 86.1351C149.428 96.7697 159.309 107.769 175.45 108.837C193.835 110.049 217.896 97.8591 249 71.5716C252.579 68.5331 260.634 68.3768 264.4 71.246L264.517 71.3197C265.389 71.9709 267.389 71.9231 268.191 71.233C271.77 68.1511 283.474 62.6469 288.939 66.4581C291.838 68.4679 297.906 68.9671 301.196 68.0556C302.405 67.7801 303.64 67.6418 304.88 67.6431H319.974V68.5504H304.88C303.717 68.5461 302.557 68.6714 301.423 68.9238Z" fill="black"/>
<path d="M301.51 76.1642C298.023 77.1322 291.563 76.5982 288.495 74.4843C283.761 71.1983 272.328 76.1772 268.967 79.0769C267.838 80.0492 265.289 80.11 264.099 79.1941C264.055 79.1696 264.012 79.1421 263.972 79.1116C260.716 76.6287 252.91 76.7849 249.819 79.398C217.647 106.593 195.601 115.834 179.207 115.83C160.648 115.83 149.31 103.997 138.727 92.9456C131.801 85.7183 125.259 78.8858 117.199 75.7909C114.24 75.8169 108.856 77.0193 106.681 79.181C99.0535 86.7423 87.8425 91.2004 76.5406 91.2004H75.6994C65.552 91.0008 56.6467 87.3327 50.6408 80.8869L50.5929 80.8523C50.5247 80.8085 50.4623 80.7575 50.4051 80.7003C48.3781 78.5907 44.2678 77.5098 39.9444 77.9482C35.8686 78.3823 32.5777 79.9797 31.131 82.289C27.5562 87.9751 22.3436 90.8968 16.8211 90.3023C10.2131 89.5945 4.42022 84.0553 1.32969 75.4827L2.27115 75.1441C5.23115 83.3481 10.7099 88.6443 16.9255 89.3127C22.0514 89.8637 26.9204 87.1071 30.2846 81.7594C31.8889 79.2027 35.4627 77.4186 39.8434 76.9846C44.5381 76.5071 48.8665 77.6791 51.12 80.0231L51.168 80.0579C51.2379 80.1056 51.3036 80.1593 51.3642 80.2184C57.2009 86.4823 65.8526 90.0373 75.7255 90.2285C87.0585 90.4541 98.352 86.0697 105.98 78.5082C108.399 76.1078 114.109 74.8272 117.313 74.8272H117.404L117.491 74.862C125.804 78.022 132.442 84.9543 139.473 92.2948C149.497 102.752 159.85 113.564 176.248 114.767C194.99 116.134 218.855 104.349 249.205 78.6732C252.714 75.7084 260.917 75.5392 264.609 78.3519L264.739 78.4345C265.554 79.0595 267.573 79.0161 268.34 78.3519C271.391 75.7258 283.595 69.8875 289.096 73.6943C291.903 75.639 298.049 76.1251 301.27 75.2352C302.478 74.9678 303.712 74.8324 304.949 74.8316H319.974V75.8299H304.949C303.794 75.8169 302.641 75.9289 301.51 76.1642Z" fill="black"/>
<path d="M301.623 83.4088C298.175 84.3598 291.598 83.8428 288.617 81.7679C283.901 78.4993 272.053 83.7386 269.19 86.2131C268.074 87.1767 265.454 87.2371 264.273 86.3297H264.295C264.245 86.3071 264.198 86.2777 264.155 86.2433C260.986 83.8255 253.106 83.9815 250.102 86.5209C222.036 110.243 199.183 121.833 180.406 121.833C179.226 121.833 178.064 121.787 176.919 121.694C159.854 120.336 148.387 109.08 138.274 99.1481C131.369 92.3678 124.845 85.9657 117.235 83.0397C114.183 83.0658 108.8 84.3027 106.773 86.3037C99.3634 93.6442 88.1743 97.9673 76.6628 97.9673H75.7642C65.6169 97.7677 56.5036 94.1214 50.7495 87.9625L50.7192 87.9365C50.6425 87.8912 50.5726 87.8375 50.5103 87.7755C48.544 85.7267 44.4076 84.6893 40.0489 85.1363C35.9781 85.5489 32.7259 87.1029 31.3314 89.2909C27.8442 94.851 22.5659 97.6897 16.8682 97.0775C10.0952 96.3488 4.26783 90.9706 1.27751 82.6882L2.30572 82.3192C5.15203 90.2016 10.64 95.3114 16.9861 95.9923C22.2476 96.5609 27.1377 93.905 30.4026 88.7131C31.9588 86.2433 35.5158 84.4981 39.9225 84.0512C44.7175 83.565 49.0493 84.6977 51.2809 87.0073L51.3162 87.0291C51.3945 87.0769 51.467 87.1356 51.5301 87.2027C57.083 93.1578 65.9133 96.6825 75.7819 96.8779C87.3019 97.1035 98.6088 92.8676 105.997 85.5397C108.355 83.2046 114.087 81.9589 117.33 81.9589H117.43L117.526 81.9937C125.394 84.9845 132.019 91.4914 139.037 98.3799C159.715 118.682 183.148 141.692 249.397 85.6965C252.762 82.8575 261.244 82.6795 264.801 85.3753C264.849 85.4013 264.895 85.4307 264.94 85.4617C265.707 86.0521 267.756 86.0085 268.475 85.3879C270.035 84.0386 273.823 82.011 278.038 80.7392C281.525 79.6801 286.32 78.8466 289.24 80.8693C291.855 82.6968 298.197 83.2221 301.327 82.3539C302.534 82.0937 303.766 81.9627 305.001 81.9632H319.957V83.0528H304.997C303.863 83.0544 302.732 83.1737 301.623 83.4088Z" fill="black"/>
<path d="M301.719 90.6495C298.355 91.582 291.559 91.0184 288.726 89.0561C284.367 86.0479 272.516 90.6662 269.399 93.3532C268.309 94.295 265.659 94.3646 264.474 93.4924C264.419 93.4681 264.368 93.437 264.321 93.401C261.305 91.1006 253.223 91.2566 250.373 93.666C223.2 116.633 200.657 127.854 181.63 127.854C180.282 127.854 178.953 127.797 177.642 127.685C160.281 126.2 148.312 115.144 137.755 105.391C130.899 99.0533 124.421 93.0714 117.269 90.3148C114.257 90.3408 108.796 91.561 106.882 93.453C99.5116 100.763 87.9082 104.987 75.8425 104.739C65.552 104.54 56.4547 101.006 50.8842 95.0464C50.8008 94.9994 50.7251 94.9407 50.6577 94.8728C48.7486 92.8844 44.6299 91.8906 40.1667 92.3468C36.1608 92.7544 32.8741 94.2782 31.584 96.3311C28.2147 101.683 22.7529 104.509 16.9651 103.889C10.1305 103.151 4.11957 97.8113 1.27325 89.924L2.38906 89.5249C5.07791 96.9735 10.7099 102.026 17.0863 102.712C22.4918 103.293 27.408 100.737 30.5726 95.7022C32.0766 93.3146 35.616 91.6214 40.0396 91.1702C44.8345 90.6838 49.3238 91.8034 51.4863 94.0308H51.5124C51.5992 94.0803 51.6783 94.1415 51.7474 94.2128C57.0956 99.9557 65.8964 103.359 75.8821 103.554C87.6513 103.784 98.9137 99.6907 106.062 92.6026C108.328 90.3584 114.2 89.1299 117.395 89.1299H117.504L117.604 89.1693C125.015 91.9904 131.619 98.0805 138.592 104.522C149.01 114.146 160.822 125.054 177.773 126.508C197.283 128.18 220.79 117.145 249.636 92.7678C252.923 89.9853 261.54 89.8075 265.04 92.4416C265.095 92.4651 265.146 92.4953 265.193 92.533C265.912 93.084 267.982 93.0412 268.654 92.4592C271.661 89.8544 284.241 84.4897 289.432 88.0883C291.956 89.8242 298.333 90.371 301.432 89.5123C302.638 89.2573 303.868 89.129 305.102 89.1299H319.987V90.3106H305.102C303.966 90.309 302.833 90.423 301.719 90.6495Z" fill="black"/>
<path d="M301.82 97.8943C298.468 98.8227 291.563 98.2365 288.83 96.3395C284.528 93.3582 272.267 98.1895 269.608 100.494C268.531 101.418 265.825 101.492 264.648 100.637C264.589 100.611 264.534 100.58 264.482 100.542C261.557 98.3061 253.402 98.4579 250.639 100.793C221.435 125.479 199.837 133.87 182.882 133.87C162.765 133.87 149.179 122.054 137.192 111.623C130.414 105.733 124.012 100.159 117.282 97.5681C114.309 97.5991 108.769 98.7967 106.964 100.607C99.9209 107.591 88.0084 111.784 75.8863 111.545C65.4518 111.342 56.3807 107.925 50.9895 102.17C50.9002 102.118 50.8186 102.056 50.7453 101.983C48.9188 100.086 44.6906 99.1137 40.2232 99.5691C36.235 99.9733 32.992 101.436 31.7718 103.381C28.4809 108.589 22.9533 111.35 16.9861 110.708C10.0127 109.957 3.9537 104.774 1.2118 97.1773L2.41518 96.7437C4.98613 103.875 10.6266 108.741 17.1259 109.436C22.592 110.027 27.6657 107.504 30.6863 102.699C32.1373 100.394 35.6548 98.7489 40.0969 98.2977C44.987 97.7987 49.5032 98.8839 51.6346 101.063C51.7289 101.115 51.8156 101.181 51.8914 101.258C57.0434 106.788 65.7962 110.069 75.9124 110.269C87.6817 110.5 99.2539 106.449 106.062 99.7041C108.338 97.4465 114.557 96.3135 117.395 96.3135H117.513L117.622 96.3529C124.596 99.0097 131.134 104.679 138.029 110.677C148.883 120.119 161.183 130.819 178.449 132.381C198.386 134.204 221.727 123.552 249.806 99.8257C253.023 97.1085 261.776 96.9299 265.219 99.5003C265.276 99.5271 265.33 99.559 265.38 99.5959C266.052 100.112 268.139 100.073 268.767 99.5305C270.449 98.0805 274.494 96.2355 278.378 95.1503C285.178 93.2492 288.303 94.4258 289.558 95.2979C291.947 96.9517 298.502 97.4901 301.475 96.6657C302.682 96.42 303.91 96.2967 305.141 96.2967H319.961V97.5681H305.141C304.026 97.5673 302.913 97.6763 301.82 97.8943Z" fill="black"/>
<path d="M301.92 105.134C298.943 105.959 291.794 105.607 288.939 103.628C287.196 102.417 283.535 102.435 278.914 103.676C274.821 104.774 271.068 106.55 269.822 107.63C268.763 108.547 265.999 108.619 264.827 107.782C264.765 107.755 264.707 107.721 264.652 107.682C261.876 105.564 253.529 105.712 250.909 107.925C225.533 129.373 203.616 139.865 184.102 139.865C182.385 139.865 180.68 139.782 179.002 139.622C160.992 137.885 148.02 127.25 136.573 117.875C129.909 112.413 123.611 107.253 117.309 104.826C114.279 104.857 108.73 106.063 107.06 107.721C100.426 114.298 88.9844 118.308 76.9844 118.308H75.9301C65.3558 118.1 56.3158 114.797 51.0846 109.245C50.9852 109.194 50.8943 109.128 50.8143 109.05C49.0712 107.214 44.8126 106.289 40.2669 106.749C36.2914 107.153 33.1006 108.546 31.941 110.386C28.7335 115.491 23.1411 118.144 16.9903 117.484C9.84674 116.72 3.77096 111.697 1.13348 104.388L2.44125 103.923C4.89935 110.743 10.5398 115.417 17.152 116.129C22.7705 116.733 27.8745 114.315 30.7992 109.662C32.1987 107.44 35.6901 105.842 40.1448 105.391C43.9368 105.004 49.2413 105.477 51.7777 108.06C51.8813 108.113 51.9756 108.182 52.0573 108.264C57.0088 113.577 65.7221 116.742 75.9604 116.945C87.9781 117.18 99.4981 113.282 106.08 106.766C108.29 104.574 114.545 103.472 117.412 103.472H117.539L117.656 103.52C124.195 106.007 130.624 111.268 137.424 116.833C148.717 126.087 161.519 136.574 179.112 138.276C199.501 140.247 222.699 129.981 250.002 106.897C253.054 104.292 262.103 104.119 265.415 106.576C265.477 106.599 265.534 106.633 265.585 106.676C266.195 107.144 268.335 107.109 268.907 106.614C271.822 104.101 284.812 99.1271 289.706 102.521C291.99 104.105 298.603 104.648 301.536 103.823C302.742 103.584 303.968 103.464 305.198 103.463H319.939V104.831H305.198C304.098 104.831 303.001 104.932 301.92 105.134Z" fill="black"/>
<path d="M302.02 112.392C299.1 113.199 291.733 112.792 289.048 110.929C285.178 108.242 272.773 112.418 270.031 114.784C268.989 115.682 266.169 115.76 264.997 114.94C264.932 114.913 264.87 114.877 264.813 114.836C262.12 112.778 253.707 112.922 251.175 115.066C226.691 135.758 205.09 145.885 185.336 145.885C183.426 145.887 181.517 145.79 179.617 145.594C161.253 143.733 147.776 133.328 135.89 124.152C129.352 119.121 123.206 114.363 117.33 112.097C114.68 112.132 108.826 113.203 107.148 114.866C100.54 121.417 88.6055 125.332 75.9916 125.084C65.2775 124.876 56.2594 121.69 51.2245 116.338C51.1217 116.285 51.0274 116.217 50.9457 116.134C49.2632 114.398 44.9087 113.482 40.3537 113.963C36.4 114.367 33.2665 115.7 32.1726 117.436C29.0425 122.415 23.3811 124.98 17.0392 124.303C13.4527 123.907 10.0531 122.506 7.2337 120.263C4.41433 118.02 2.29224 115.028 1.1116 111.633L2.49771 111.09C3.58403 114.229 5.54277 116.997 8.14656 119.071C10.7495 121.146 13.8905 122.443 17.2042 122.81C22.9802 123.43 28.1011 121.113 30.9432 116.62C32.2897 114.476 35.7381 112.93 40.2148 112.475C44.0809 112.084 49.4552 112.522 51.9571 115.048C52.0657 115.103 52.1642 115.175 52.2484 115.261C57.0038 120.362 65.6699 123.404 76.0303 123.609C88.235 123.847 99.7903 120.093 106.106 113.811C108.225 111.715 114.619 110.617 117.439 110.617H117.574L117.7 110.665C123.803 112.987 130.101 117.839 136.757 122.979C148.495 132.038 161.794 142.305 179.739 144.124C200.609 146.246 223.658 136.37 250.203 113.933C253.202 111.398 262.364 111.216 265.62 113.612C265.684 113.639 265.744 113.674 265.799 113.716C266.365 114.15 268.518 114.115 269.046 113.66C271.77 111.311 285.112 106.424 289.855 109.71C292.034 111.202 298.799 111.741 301.623 110.964C302.828 110.731 304.053 110.615 305.281 110.617H319.952V112.071H305.281C304.186 112.079 303.095 112.186 302.02 112.392Z" fill="black"/>
<path d="M302.116 119.62C299.252 120.414 291.768 120.015 289.153 118.2C285.457 115.635 272.803 119.702 270.24 121.912C269.216 122.78 266.348 122.87 265.175 122.072C265.105 122.044 265.039 122.006 264.979 121.959C262.434 120.019 253.829 120.162 251.441 122.18C227.859 142.113 206.568 151.88 186.578 151.876C184.444 151.875 182.311 151.763 180.188 151.541C161.445 149.554 146.865 138.953 135.139 130.415C128.523 125.601 122.804 121.443 117.356 119.337C114.627 119.377 108.782 120.458 107.244 121.985C100.853 128.318 88.8842 132.099 76.0345 131.848C65.1899 131.635 56.2021 128.561 51.3465 123.418C51.2387 123.363 51.1402 123.291 51.0552 123.205C49.429 121.512 45.0526 120.661 40.4152 121.13C36.4918 121.529 33.4097 122.792 32.3815 124.424C29.3735 129.199 23.4981 131.752 17.0518 131.062C9.64126 130.263 3.50483 125.575 1.06778 118.825L2.53304 118.3C5.19999 125.679 11.8695 128.948 17.2219 129.521C23.0669 130.15 28.3714 127.88 31.0653 123.604C32.3731 121.543 35.7945 120.045 40.2577 119.589C44.512 119.155 49.7996 119.758 52.1095 122.063C52.2248 122.119 52.3276 122.195 52.4143 122.289C56.9036 127.103 65.744 130.103 76.0657 130.298C76.4446 130.298 76.8194 130.298 77.1983 130.298C89.0501 130.298 100.322 126.647 106.145 120.873C108.168 118.868 114.706 117.775 117.478 117.775H117.622L117.752 117.827C123.419 119.997 129.273 124.234 136.06 129.152C148.233 138.007 162.034 148.047 180.354 149.987C201.742 152.253 224.665 142.768 250.434 120.987C253.363 118.513 262.639 118.334 265.855 120.665C265.924 120.696 265.988 120.733 266.047 120.779C266.57 121.182 268.736 121.143 269.22 120.726C271.835 118.461 285.348 113.668 290.042 116.915C292.117 118.352 298.965 118.873 301.702 118.118C302.906 117.89 304.129 117.776 305.355 117.775H319.957V119.337H305.355C304.269 119.339 303.185 119.433 302.116 119.62Z" fill="black"/>
<path d="M302.216 126.865C299.409 127.641 291.799 127.246 289.262 125.488C285.745 123.049 272.851 126.977 270.45 129.048C269.443 129.916 266.527 129.999 265.35 129.221C265.277 129.189 265.208 129.148 265.145 129.1C262.748 127.272 253.956 127.411 251.707 129.313C229.041 148.486 208.045 157.884 187.824 157.884C185.448 157.884 183.073 157.753 180.711 157.493C161.581 155.387 146.464 145.026 134.32 136.705C127.934 132.325 122.413 128.54 117.382 126.595C114.689 126.634 108.778 127.685 107.357 129.117C101.255 135.142 89.0156 138.875 76.1002 138.624C65.1293 138.407 56.1676 135.45 51.4863 130.506C51.3727 130.452 51.2699 130.378 51.1815 130.29C49.6379 128.683 45.1402 127.858 40.4893 128.331C36.592 128.726 33.5714 129.921 32.6122 131.453C29.6792 136.115 23.7297 138.567 17.0779 137.855C13.6447 137.499 10.3562 136.293 7.51077 134.348C4.53982 132.322 2.27961 129.422 1.04592 126.053L2.59791 125.497C5.13096 132.516 11.8299 135.642 17.2564 136.223C23.2674 136.869 28.6198 134.708 31.2051 130.58C33.0004 127.728 38.1786 126.917 40.3099 126.699C44.6687 126.265 50.0042 126.825 52.2796 129.074C52.4017 129.13 52.512 129.208 52.6063 129.304C56.8952 133.905 65.6825 136.779 76.1221 136.983C88.6013 137.226 100.409 133.683 106.198 127.954C108.294 125.875 115.264 124.954 117.561 124.954H117.709L117.853 125.006C123.084 127.003 128.75 130.871 135.288 135.351C147.279 143.572 162.203 153.803 180.925 155.865C202.867 158.279 225.68 149.185 250.665 128.062C253.52 125.644 262.944 125.458 266.086 127.737C266.158 127.769 266.225 127.807 266.287 127.854C266.758 128.215 268.959 128.18 269.395 127.811C270.824 126.574 274.908 124.958 279.102 123.969C282.131 123.253 287.606 122.324 290.225 124.142C292.161 125.484 299.165 126.013 301.798 125.285C303.003 125.063 304.225 124.953 305.45 124.954H319.978V126.595H305.433C304.355 126.595 303.279 126.686 302.216 126.865Z" fill="black"/>
<path d="M302.316 134.096C299.562 134.86 291.834 134.473 289.371 132.768C285.976 130.415 272.807 134.33 270.659 136.179C269.673 137.047 266.701 137.113 265.533 136.357C265.453 136.325 265.379 136.282 265.31 136.231C262.992 134.465 254.143 134.599 251.977 136.431C227.725 156.928 206.881 163.891 189.005 163.891C165.773 163.891 147.558 152.123 133.427 142.995C127.325 139.044 122.024 135.615 117.408 133.844C114.745 133.883 108.774 134.908 107.427 136.24C101.565 142.052 89.2682 145.642 76.1129 145.386C65.1815 145.173 56.032 142.261 51.5865 137.573C51.4669 137.519 51.3583 137.442 51.2682 137.347C49.7777 135.798 45.2489 135.02 40.5061 135.502C36.6493 135.893 33.6935 137.026 32.7958 138.449C29.9402 142.99 23.9082 145.355 17.0476 144.617C13.6093 144.272 10.304 143.109 7.40971 141.228C4.45813 139.33 2.20213 136.531 0.981077 133.249L2.61979 132.664C4.19368 137.004 8.85728 141.996 17.2345 142.899C23.424 143.558 28.8244 141.505 31.3221 137.529C33.0661 134.795 38.1962 133.996 40.3318 133.779C44.7646 133.345 50.1827 133.861 52.4278 136.053C52.5549 136.111 52.6703 136.192 52.768 136.292C56.8606 140.685 65.6 143.428 76.1482 143.637C88.8581 143.889 100.653 140.494 106.198 134.994C108.229 132.985 115.242 132.09 117.565 132.09H117.726L117.875 132.147C122.7 133.983 128.109 137.477 134.372 141.523C146.782 149.54 162.221 159.516 181.373 161.694C191.882 162.888 202.213 161.655 212.952 157.922C225.231 153.651 237.981 145.968 250.848 135.094C253.563 132.802 263.249 132.62 266.274 134.773C266.351 134.802 266.423 134.843 266.487 134.894C266.949 135.224 269.077 135.194 269.539 134.851C272.276 132.49 286.141 128.388 290.382 131.326C292.195 132.581 299.366 133.107 301.868 132.411C303.072 132.201 304.293 132.093 305.516 132.09H319.974V133.827H305.516C304.444 133.832 303.374 133.922 302.316 134.096Z" fill="black"/>
<path d="M302.417 141.349C299.732 142.092 291.79 141.662 289.475 140.047C288.133 139.119 284.433 139.153 279.821 140.147C275.462 141.08 271.792 142.517 270.868 143.316C269.944 144.114 266.884 144.236 265.711 143.502C265.627 143.467 265.546 143.422 265.472 143.368C263.292 141.71 254.274 141.84 252.243 143.555C239.602 154.237 226.849 161.756 214.322 165.897C206.525 168.507 198.359 169.849 190.135 169.873C187.269 169.872 184.406 169.703 181.56 169.369C161.541 167.025 145.383 157.215 132.438 149.306C126.645 145.777 121.628 142.721 117.426 141.094C114.706 141.137 108.743 142.149 107.509 143.368C102.066 148.772 90.4185 152.171 77.5646 152.171H76.1305C65.0897 151.954 55.9756 149.163 51.6994 144.692C51.5756 144.634 51.4636 144.555 51.3684 144.457C49.9562 142.986 45.2969 142.243 40.528 142.721C36.7705 143.099 33.8156 144.188 32.9962 145.49C30.2148 149.913 24.091 152.189 17.0164 151.429C13.5756 151.088 10.2585 149.969 7.31875 148.156C4.39159 146.382 2.14232 143.686 0.928847 140.494L2.67202 139.878C4.15413 143.988 8.77475 148.707 17.2303 149.614C23.5074 150.287 29.0947 148.291 31.4619 144.523C33.1099 141.918 38.2316 141.12 40.3579 140.902C44.8867 140.442 50.3832 140.941 52.5979 143.073C52.7293 143.133 52.8488 143.217 52.9507 143.32C56.8472 147.505 65.5343 150.122 76.1869 150.33C88.9238 150.582 101.006 147.266 106.237 142.083C108.216 140.121 115.551 139.279 117.608 139.279H117.779L117.936 139.34C122.329 141.006 127.464 144.114 133.414 147.756C146.224 155.57 162.182 165.267 181.796 167.567C192.573 168.799 203.49 167.639 213.763 164.173C226.06 160.106 238.609 152.705 251.07 142.175C253.686 139.943 263.523 139.761 266.496 141.853C266.573 141.885 266.646 141.926 266.714 141.974C267.185 142.274 269.242 142.243 269.682 141.944C271.178 140.642 275.723 139.175 279.446 138.371C282.532 137.707 288.072 136.853 290.539 138.558C292.23 139.735 299.562 140.247 301.937 139.587C303.141 139.383 304.36 139.28 305.581 139.279H319.965V141.102H305.581C304.522 141.104 303.464 141.187 302.417 141.349Z" fill="black"/>
<path d="M302.517 148.59C300.146 149.249 291.955 148.993 289.584 147.348C288.312 146.48 284.641 146.506 279.995 147.457C275.597 148.359 271.94 149.718 271.077 150.465C270.131 151.281 267.08 151.372 265.894 150.665C265.801 150.628 265.714 150.58 265.633 150.521C263.602 148.972 254.401 149.097 252.504 150.699C230.244 169.512 209.697 175.907 191.447 175.901C166.685 175.901 146.159 164.126 131.369 155.644C125.947 152.527 121.249 149.831 117.456 148.364C114.771 148.407 108.739 149.384 107.61 150.535C102.38 155.722 90.7545 158.981 77.7002 158.981C77.1899 158.981 76.6754 158.981 76.1566 158.981C65.0072 158.764 55.936 156.091 51.8257 151.824C51.6952 151.766 51.5773 151.683 51.4771 151.581C50.139 150.192 45.3398 149.48 40.5499 149.965C36.8447 150.344 33.9638 151.363 33.2101 152.57C30.5465 156.807 24.1735 159.042 16.9777 158.269C13.5402 157.936 10.2164 156.859 7.24041 155.114C4.14062 153.239 1.94862 150.703 0.889256 147.773L2.70232 147.122C4.44632 151.984 10.1389 155.608 17.1823 156.364C23.6556 157.058 29.3044 155.17 31.5663 151.555C33.1402 149.05 38.2265 148.281 40.341 148.082C44.8177 147.647 50.5406 148.082 52.7284 150.152C52.869 150.213 52.9945 150.302 53.0989 150.413C56.7992 154.38 65.4299 156.876 76.2004 157.089C89.168 157.34 101.251 154.18 106.276 149.219C108.298 147.214 116.131 146.506 117.656 146.506H117.831L117.997 146.571C121.968 148.078 126.78 150.843 132.359 154.042C144.872 161.221 161.998 171.058 182.132 173.475C193.029 174.792 204.083 173.765 214.548 170.463C226.879 166.599 239.241 159.48 251.288 149.297C253.851 147.127 263.776 146.949 266.714 148.972C266.791 149.006 266.864 149.048 266.932 149.097C267.368 149.362 269.399 149.336 269.857 149.063C272.271 147.018 286.655 143.029 290.705 145.833C292.322 146.957 299.706 147.448 302.037 146.805C303.242 146.607 304.461 146.506 305.682 146.506H319.996V148.425H305.682C304.624 148.406 303.566 148.46 302.517 148.59Z" fill="black"/>
<path d="M302.613 155.834C300.294 156.477 291.99 156.225 289.693 154.632C286.843 152.657 273.182 155.973 271.291 157.605C270.367 158.399 267.272 158.495 266.06 157.814C265.961 157.775 265.867 157.724 265.781 157.662C263.89 156.216 254.518 156.338 252.757 157.827C240.906 167.841 228.479 174.816 215.821 178.55C208.275 180.775 200.445 181.9 192.575 181.892C189.063 181.892 185.553 181.675 182.067 181.245C161.027 178.64 143.195 169.017 130.175 161.977C125.18 159.272 120.851 156.933 117.46 155.622C114.815 155.665 108.744 156.603 107.684 157.649C101.747 163.531 87.5773 165.939 76.1566 165.718C64.9027 165.497 55.8796 162.945 51.931 158.877C51.7937 158.82 51.6708 158.733 51.5689 158.626C50.3049 157.323 45.3533 156.637 40.5322 157.128C36.8926 157.497 34.0952 158.43 33.4021 159.55C30.7865 163.669 24.3309 165.814 16.8994 165.02C13.4678 164.689 10.1415 163.654 7.13094 161.981C4.01852 160.18 1.83917 157.753 0.828648 154.954L2.72925 154.276C4.36799 158.825 10.0168 162.259 17.1133 163.023C23.6817 163.726 29.5352 161.903 31.6884 158.487C33.1352 156.181 37.7213 155.396 40.3234 155.131C44.9002 154.667 50.7015 155.092 52.8766 157.098C53.024 157.157 53.1562 157.25 53.264 157.367C56.7166 161.07 65.504 163.5 76.192 163.709C89.4029 163.969 101.473 160.961 106.268 156.225C108.216 154.294 116.105 153.621 117.652 153.621H117.836L118.01 153.686C121.549 155.031 125.995 157.436 131.143 160.197C144.019 167.164 161.654 176.692 182.319 179.24C193.362 180.639 204.577 179.743 215.255 176.609C227.638 172.955 239.82 166.118 251.454 156.282C253.947 154.176 263.99 153.998 266.879 155.961C266.96 155.992 267.036 156.032 267.106 156.081C268.051 156.315 269.039 156.305 269.979 156.051C271.382 154.876 275.955 153.512 279.773 152.77C282.915 152.163 288.525 151.377 290.827 152.974C292.331 154.016 299.862 154.493 302.055 153.885C302.892 153.655 305.372 153.599 305.694 153.599H319.939V155.604H305.694C304.663 155.614 303.634 155.691 302.613 155.834Z" fill="black"/>
<path d="M302.713 163.075C300.446 163.705 292.021 163.461 289.802 161.92C288.957 161.335 285.975 161.018 280.357 162.055C275.597 162.923 272.154 164.178 271.5 164.742C270.598 165.519 267.477 165.61 266.27 164.963C266.159 164.925 266.056 164.869 265.964 164.798C264.151 163.418 254.727 163.531 253.04 164.954C241.581 174.643 229.299 181.341 216.531 184.866C209.133 186.897 201.492 187.919 193.817 187.904C189.923 187.9 186.034 187.653 182.171 187.166C172.582 185.963 162.813 183.355 152.253 179.188C143.265 175.646 135.297 171.587 128.899 168.335C124.387 166.039 120.481 164.048 117.504 162.897C114.888 162.941 108.76 163.839 107.793 164.798C102.126 170.441 87.8122 172.733 76.1785 172.508C64.8455 172.286 55.8535 169.855 52.0708 165.997C51.9268 165.937 51.7979 165.848 51.691 165.736C50.5011 164.495 45.3929 163.861 40.5415 164.355C36.4792 164.768 34.1423 165.784 33.6236 166.604C31.1091 170.606 24.5179 172.655 16.8337 171.812C7.20083 170.78 2.23664 166.17 0.806746 162.189L2.78989 161.477C4.65094 166.635 11.6379 169.143 17.0602 169.725C23.8425 170.454 29.7794 168.744 31.8366 165.471C33.2185 163.279 37.7474 162.51 40.3276 162.25C45.0089 161.772 50.8977 162.163 53.051 164.108C53.2152 164.169 53.3642 164.266 53.4872 164.39C56.7427 167.884 65.4602 170.19 76.2392 170.402C89.4813 170.658 101.852 167.741 106.315 163.3C108.298 161.33 116.803 160.783 117.704 160.783H117.901L118.083 160.852C121.187 162.033 125.21 164.082 129.853 166.456C155.613 179.587 203.564 204.026 251.672 163.366C253.376 161.924 258.044 161.76 259.435 161.746C260.825 161.734 265.214 161.782 267.097 163.049C267.178 163.081 267.254 163.123 267.324 163.175C268.257 163.387 269.226 163.375 270.153 163.14C271.574 161.968 276.216 160.701 279.965 160.01C283.831 159.298 288.887 158.756 290.997 160.218C292.396 161.186 300.085 161.647 302.142 161.086C302.931 160.87 305.459 160.809 305.773 160.809H319.948V162.91H305.773C304.751 162.902 303.729 162.957 302.713 163.075Z" fill="black"/>
<path d="M302.818 170.32C300.638 170.918 292.003 170.658 289.911 169.208C289.039 168.614 285.827 168.431 280.536 169.352C275.789 170.176 272.306 171.375 271.713 171.882C270.842 172.638 267.708 172.75 266.483 172.117C266.36 172.078 266.245 172.018 266.143 171.938C264.465 170.658 254.876 170.767 253.32 172.086C242.248 181.445 230.087 187.87 217.176 191.185C209.949 193.019 202.518 193.933 195.06 193.908C190.732 193.903 186.408 193.622 182.115 193.07C159.85 190.226 140.371 180.863 127.477 174.669C123.528 172.772 120.107 171.127 117.544 170.137C114.928 170.185 108.752 171.07 107.902 171.917C102.453 177.317 88.0472 179.5 76.1828 179.27C64.7545 179.045 55.8316 176.731 52.2097 173.071C52.0598 173.009 51.9242 172.916 51.8131 172.798C50.8143 171.76 45.9335 170.988 40.5238 171.535C36.5575 171.938 34.3124 172.867 33.8459 173.605C32.5777 175.628 30.1415 177.152 26.811 178.011C23.5141 178.792 20.1044 178.991 16.7377 178.598C10.3781 177.916 2.84211 175.125 0.77558 169.412L2.84633 168.67C4.26696 172.607 9.82065 175.65 16.9735 176.418C23.8729 177.16 30.0497 175.524 31.9806 172.442C33.2269 170.463 37.2109 169.673 40.3015 169.356C43.7541 169.004 50.763 168.922 53.2211 171.092C53.3853 171.157 53.5343 171.256 53.6564 171.383C56.7082 174.673 65.3693 176.848 76.2307 177.06C89.7128 177.325 102.096 174.565 106.35 170.346C108.259 168.453 116.837 167.928 117.748 167.928H117.953L118.141 167.997C120.808 169.013 124.344 170.71 128.44 172.681C141.203 178.81 160.491 188.077 182.398 190.878C194.407 192.41 205.935 191.793 216.632 189.045C229.215 185.816 241.084 179.544 251.903 170.402C253.498 169.047 257.866 168.861 259.67 168.839C261.03 168.839 265.494 168.874 267.324 170.072C267.403 170.104 267.479 170.144 267.551 170.189C268.472 170.381 269.423 170.372 270.341 170.164C272.843 168.167 287.675 164.954 291.18 167.394C292.487 168.293 300.333 168.726 302.238 168.197C303.053 167.966 305.838 167.928 305.865 167.928H319.969V170.124H305.869C304.849 170.13 303.83 170.195 302.818 170.32Z" fill="black"/>
<path d="M302.914 177.565C300.795 178.15 292.017 177.89 290.016 176.492C289.218 175.941 286.032 175.776 280.71 176.649C276.09 177.408 272.476 178.541 271.918 179.023C271.047 179.778 267.9 179.891 266.657 179.266C266.528 179.224 266.407 179.161 266.3 179.079C265.82 178.714 263.519 178.211 259.897 178.255C256.275 178.297 254.026 178.836 253.581 179.214C237.297 192.974 218.057 199.906 196.237 199.906C191.427 199.898 186.621 199.578 181.853 198.947C171.723 197.645 161.293 195.041 149.955 190.99C140.423 187.596 132.028 183.793 125.899 181.006C122.591 179.509 119.719 178.207 117.583 177.382C115.002 177.425 108.865 178.25 107.993 179.035C102.789 184.197 88.2569 186.268 76.1743 186.029C64.6804 185.803 55.8139 183.611 52.3402 180.152C52.1861 180.085 52.0472 179.99 51.931 179.869C50.976 178.879 45.8813 178.177 40.4851 178.728C36.0649 179.162 34.352 180.16 34.064 180.615C31.3659 184.904 23.3541 186.094 16.6291 185.369C10.235 184.684 2.71075 182.027 0.762965 176.623L2.92044 175.854C4.22823 179.483 9.70698 182.33 16.8682 183.099C23.8948 183.854 30.3158 182.3 32.1247 179.404C33.3053 177.529 37.1983 176.765 40.2535 176.453C44.3638 176.019 51.1116 176.149 53.387 178.098C53.5529 178.167 53.7019 178.272 53.8223 178.406C56.6948 181.484 65.2724 183.533 76.2047 183.745C89.9394 184.014 102.357 181.415 106.371 177.417C108.316 175.49 117.704 175.095 117.774 175.095H117.984L118.184 175.173C120.403 176.015 123.38 177.343 126.832 178.927C139.037 184.466 159.492 193.729 182.132 196.677C194.585 198.296 206.38 197.822 217.189 195.27C229.939 192.258 241.686 186.268 252.099 177.473C254.278 175.616 264.739 175.433 267.512 177.138C267.591 177.17 267.667 177.209 267.738 177.256C268.652 177.425 269.591 177.417 270.502 177.23C272.062 176.011 277.589 174.847 280.339 174.395C284.262 173.749 289.375 173.262 291.333 174.617C292.518 175.442 300.486 175.863 302.303 175.364C303.088 175.143 305.899 175.103 305.93 175.103H319.961V177.391H305.93C304.922 177.394 303.915 177.452 302.914 177.565Z" fill="black"/>
<path d="M303.014 184.805C301.179 185.313 292.174 185.2 290.125 183.78C289.414 183.286 286.241 183.125 280.971 183.936C276.338 184.644 272.69 185.712 272.145 186.159C271.273 186.897 268.135 187.006 266.871 186.42C266.73 186.375 266.597 186.308 266.478 186.22C266.043 185.895 263.741 185.43 260.137 185.46C256.532 185.49 254.261 186.007 253.864 186.328C238.461 199.351 219.56 205.905 197.518 205.905C192.088 205.891 186.664 205.519 181.282 204.794C157.491 201.638 136.595 192.692 124.112 187.349C121.532 186.242 119.287 185.282 117.604 184.636C115.102 184.679 108.952 185.46 108.093 186.164C103.133 191.081 88.4791 193.044 76.1398 192.801C64.5844 192.57 55.7835 190.5 52.4665 187.244C52.3023 187.177 52.1541 187.077 52.0311 186.95C51.1368 186.02 45.8678 185.369 40.4109 185.925C36.4396 186.328 34.5608 187.17 34.2686 187.661C31.6539 191.819 23.424 192.922 16.4328 192.171C10.021 191.481 2.51955 188.941 0.693022 183.867L2.9381 183.064C4.13642 186.394 9.5368 189.041 16.6854 189.81C23.9688 190.591 30.512 189.158 32.2467 186.398C33.1444 184.974 35.8071 184.028 40.1667 183.585C44.3772 183.151 51.2463 183.234 53.5259 185.117C53.7086 185.186 53.8728 185.296 54.0051 185.438C56.6821 188.312 65.1815 190.213 76.1827 190.443C89.9478 190.717 102.663 188.217 106.407 184.501C108.272 182.656 117.74 182.278 117.818 182.278H118.036L118.241 182.356C119.984 183.021 122.333 184.024 125.049 185.187C137.42 190.483 158.128 199.346 181.596 202.459C209.993 206.226 233.792 200.197 252.317 184.54C254.439 182.747 265.014 182.565 267.725 184.206C267.802 184.234 267.875 184.27 267.943 184.315C268.851 184.468 269.78 184.46 270.685 184.289C272.211 183.138 277.554 182.065 280.531 181.606C284.498 180.994 289.624 180.538 291.498 181.84C292.653 182.617 300.678 182.999 302.395 182.526C303.162 182.314 305.991 182.278 306.017 182.278H319.965V184.653H306.017C305.28 184.644 303.363 184.726 303.014 184.805Z" fill="black"/>
<path d="M303.11 192.049C301.445 192.51 292.178 192.414 290.23 191.069C289.689 190.691 286.838 190.421 281.203 191.225C276.377 191.911 272.89 192.891 272.341 193.3C271.469 194.055 268.383 194.085 267.111 193.586C266.939 193.544 266.777 193.467 266.636 193.361C266.2 193.066 263.929 192.64 260.363 192.67C256.798 192.701 254.522 193.17 254.117 193.473C239.593 205.749 221.034 211.925 198.76 211.925C192.566 211.91 186.38 211.476 180.244 210.624C155.504 207.264 132.909 198.097 122.051 193.695C120.307 192.992 118.79 192.392 117.6 191.915C115.334 191.963 109.114 192.649 108.137 193.339C103.404 198.005 88.6223 199.85 76.0606 199.598C70.4463 199.49 57.0745 198.756 52.5625 194.363C52.3975 194.294 52.2493 194.19 52.1272 194.059C51.4248 193.33 46.6745 192.592 40.8337 193.104C36.2257 193.508 34.6526 194.407 34.4648 194.688C31.9284 198.721 23.4636 199.737 16.2063 198.955C7.92421 198.087 2.08844 195.127 0.636651 191.099L2.96843 190.265C4.05811 193.304 9.35832 195.739 16.4808 196.503C23.9166 197.302 30.7512 195.961 32.3731 193.382C33.2185 192.037 35.803 191.133 40.0615 190.7C43.0644 190.395 51.1419 190.088 53.6741 192.123C53.8661 192.193 54.0371 192.308 54.1752 192.458C56.6249 195.062 65.2421 196.916 76.1305 197.132C90.1617 197.406 102.907 195.071 106.429 191.572C108.211 189.805 117.762 189.445 117.844 189.445H118.075L118.289 189.527C119.531 190 121.144 190.656 123.01 191.411C134.595 196.112 156.171 204.868 180.602 208.184C210.499 212.247 234.694 206.669 252.522 191.602C253.895 190.443 258.001 190.235 260.324 190.218C262.098 190.218 266.261 190.274 267.926 191.263C267.999 191.293 268.07 191.325 268.139 191.363C269.04 191.511 269.958 191.511 270.859 191.363C272.755 189.996 280.383 188.881 280.714 188.833C284.716 188.256 289.868 187.826 291.655 189.067C292.819 189.783 300.869 190.144 302.46 189.701C303.197 189.497 306.052 189.462 306.078 189.462H319.969V191.933H306.078C305.433 191.902 303.458 191.975 303.11 192.049ZM266.745 193.395C266.846 193.473 266.959 193.535 267.08 193.577C266.961 193.53 266.849 193.469 266.745 193.395Z" fill="black"/>
<path d="M303.184 199.298C301.479 199.733 292.195 199.637 290.339 198.352C289.811 198.014 286.991 197.78 281.386 198.522C276.591 199.156 273.104 200.062 272.533 200.453C272.315 200.64 271.801 201.031 269.722 201.053C268.222 201.053 267.542 200.874 267.189 200.705C267.051 200.661 266.922 200.595 266.805 200.51C265.385 199.615 255.73 199.698 254.383 200.601C240.731 212.138 222.52 217.943 200.06 217.938C192.83 217.907 185.612 217.372 178.457 216.336C152.531 212.677 129.526 203.748 119.705 199.958L117.64 199.16C115.395 199.204 109.249 199.832 108.229 200.462C103.735 204.851 88.3916 206.587 76 206.344C70.3731 206.235 56.9996 205.532 52.7023 201.434C52.5263 201.364 52.368 201.257 52.2358 201.121C51.595 200.514 47.3668 199.868 41.9318 200.193C37.3112 200.475 35.0181 201.269 34.6695 201.69C32.2291 205.571 23.2539 206.495 15.9268 205.71C12.832 205.376 2.58023 203.86 0.575181 198.296L2.99454 197.428C3.9756 200.154 9.16297 202.407 16.2021 203.162C23.8122 203.978 30.9608 202.728 32.4775 200.327C32.7739 199.854 33.6767 198.418 39.8872 197.784C42.7647 197.493 51.2202 197.141 53.7701 199.086C53.9756 199.157 54.1609 199.276 54.3107 199.433C56.5642 201.855 65.0855 203.557 76.0177 203.774C90.096 204.052 103.164 201.825 106.415 198.604C108.115 196.916 117.748 196.573 117.836 196.573H118.071L118.293 196.655C118.947 196.902 119.719 197.202 120.603 197.545C130.341 201.321 153.15 210.159 178.785 213.775C210.604 218.264 235.475 213.167 252.683 198.622C253.991 197.51 258.14 197.319 260.494 197.293C262.708 197.293 266.522 197.385 268.078 198.283C268.149 198.309 268.217 198.339 268.283 198.374C269.182 198.508 270.096 198.508 270.994 198.374C272.834 197.111 280.017 196.112 280.854 196C286.721 195.21 290.395 195.292 291.751 196.234C292.937 196.898 301.031 197.224 302.487 196.82C303.193 196.625 306.074 196.595 306.104 196.595H319.922V199.156H306.104C305.533 199.16 303.58 199.208 303.184 199.298Z" fill="black"/>
<path d="M303.254 206.543C301.636 206.951 292.239 206.895 290.443 205.649C288.656 204.638 274.56 206.491 272.711 207.607C272.476 207.802 271.962 208.163 269.887 208.179C268.41 208.179 267.708 208.019 267.363 207.858C267.219 207.814 267.084 207.744 266.963 207.654C266.527 207.411 264.234 207.06 260.773 207.086C257.312 207.112 255.071 207.489 254.605 207.75C245.164 215.724 232.746 220.807 217.699 222.869C212.227 223.596 206.71 223.951 201.188 223.932C192.673 223.89 184.173 223.227 175.755 221.949C157.448 219.258 137.35 213.888 117.648 206.417C115.469 206.461 109.336 207.051 108.285 207.628C103.997 211.76 88.5179 213.38 75.8905 213.132C70.2552 213.02 56.9263 212.351 52.816 208.544C52.6366 208.475 52.4741 208.369 52.3402 208.231C51.7996 207.798 48.6181 207.19 43.5141 207.333C38.4093 207.477 35.3583 208.262 34.8404 208.757C32.4472 212.49 23.2068 213.315 15.6093 212.499C11.6859 212.065 2.34106 210.554 0.532215 205.554L3.03835 204.66C3.90993 207.046 9.06698 209.148 15.8965 209.868C23.6994 210.706 31.1958 209.564 32.6038 207.325C32.9137 206.834 33.7331 205.532 39.7482 204.92C42.7074 204.62 51.3508 204.234 53.9318 206.113C54.1482 206.188 54.3436 206.313 54.5019 206.478C56.5685 208.696 64.9634 210.268 75.9436 210.485C90.3057 210.767 103.404 208.709 106.455 205.71C108.107 204.073 117.788 203.774 117.883 203.774H118.128L118.359 203.865C137.973 211.313 157.936 216.665 176.139 219.34C191.459 221.592 205.316 221.901 217.329 220.256C231.883 218.263 243.852 213.371 252.905 205.723C254.1 204.712 257.818 204.473 260.721 204.447C262.939 204.447 266.736 204.533 268.279 205.371C268.35 205.395 268.421 205.424 268.488 205.458C269.385 205.581 270.294 205.581 271.191 205.458C272.982 204.299 279.677 203.413 281.05 203.24C286.925 202.502 290.583 202.584 291.917 203.474C293.15 204.078 301.227 204.381 302.574 204.008C303.258 203.822 306.157 203.791 306.187 203.791H319.934V206.443H306.187C305.625 206.413 303.663 206.478 303.254 206.543Z" fill="black"/>
<path d="M303.358 213.788C301.728 214.183 292.361 214.123 290.578 212.92C290.007 212.647 287.183 212.486 281.669 213.106C276.983 213.64 273.562 214.409 272.917 214.739C272.668 214.947 272.145 215.272 270.092 215.29C268.558 215.29 267.887 215.138 267.542 214.977C267.409 214.933 267.283 214.87 267.167 214.791C265.659 214.044 256.366 214.113 254.871 214.873C246.084 222.283 234.01 227.027 218.985 228.929C213.491 229.608 207.959 229.938 202.422 229.918C193.79 229.875 185.171 229.258 176.622 228.073C151.224 224.675 127.137 217.221 117.692 213.654C115.695 213.697 109.51 214.209 108.368 214.76C104.28 218.637 88.6577 220.134 75.7819 219.882C70.1508 219.77 56.8825 219.132 52.9642 215.62C52.7815 215.55 52.6147 215.444 52.4758 215.308C51.8872 214.903 48.7183 214.37 43.7011 214.5C38.6846 214.63 35.6371 215.329 35.0493 215.802C32.3419 219.926 20.9263 219.87 15.2472 219.275C11.3676 218.863 2.17097 217.395 0.505286 212.763L3.09896 211.835C3.85348 213.936 8.85728 215.828 15.5394 216.545C24.2569 217.482 31.6101 216.11 32.752 214.296C33.2446 213.515 34.4649 212.559 39.5731 212.03C42.0581 211.779 51.3811 211.275 54.0792 213.106C54.3149 213.179 54.5272 213.313 54.6939 213.493C56.2324 215.142 63.3642 216.918 75.8341 217.161C90.2619 217.443 103.731 215.511 106.503 212.763C106.939 212.33 107.811 211.791 112.422 211.309C114.85 211.053 117.269 210.928 117.936 210.928H118.193L118.428 211.019C118.694 211.119 145.283 221.133 176.993 225.378C192.632 227.47 206.632 227.757 218.637 226.246C233.147 224.397 244.754 219.865 253.132 212.79C254.052 212.013 256.684 211.604 260.978 211.574C263.68 211.574 267.08 211.696 268.514 212.442C268.579 212.466 268.643 212.492 268.706 212.521C269.608 212.636 270.52 212.636 271.421 212.521C273.165 211.47 279.341 210.684 281.277 210.459C287.17 209.777 290.809 209.855 292.1 210.689C293.316 211.219 301.41 211.51 302.687 211.179C303.354 210.997 306.266 210.975 306.296 210.975H319.974V213.718H306.296C305.773 213.671 303.772 213.728 303.358 213.788Z" fill="black"/>
<path d="M303.446 221.033C302.107 221.363 297.683 221.202 297.173 221.181C291.969 220.981 291.071 220.481 290.7 220.238C290.108 220 287.283 219.852 281.821 220.429C277.11 220.924 273.784 221.602 273.104 221.919C272.829 222.14 272.315 222.426 270.275 222.439C268.776 222.439 268.096 222.304 267.743 222.152C267.605 222.109 267.474 222.046 267.355 221.966C265.838 221.302 256.654 221.363 255.115 222.044C246.977 228.894 235.252 233.261 220.245 235.031C214.728 235.659 209.178 235.963 203.624 235.943C194.881 235.902 186.147 235.335 177.472 234.246C148.129 230.686 123.027 222.891 117.718 220.928C115.725 220.972 109.615 221.436 108.429 221.94C103.939 226.102 85.0535 226.862 75.616 226.676C68.6425 226.541 56.6863 225.842 53.0947 222.739C52.9112 222.672 52.7436 222.568 52.6021 222.435C51.9832 222.07 48.8185 221.597 43.8846 221.714C38.9508 221.831 35.8905 222.456 35.2455 222.878C32.7478 226.541 21.6851 226.784 14.7983 226.042C10.0859 225.534 1.95285 224.075 0.480008 219.965L3.15621 219.01C3.68337 220.469 7.64548 222.4 15.1032 223.203C18.992 223.633 22.9162 223.642 26.8067 223.229C30.6813 222.76 32.512 221.871 32.9086 221.25C33.3971 220.477 34.5482 219.617 39.3819 219.127C41.7794 218.884 51.4644 218.346 54.2324 220.078C54.4859 220.153 54.7141 220.294 54.8943 220.486C56.2762 221.971 63.2463 223.576 75.7036 223.82C90.2013 224.101 104.035 222.304 106.559 219.809C107.039 219.331 107.867 218.871 112.514 218.424C114.92 218.189 117.365 218.068 117.997 218.068H118.259L118.507 218.163C123.144 219.926 148.281 227.826 177.847 231.407C193.805 233.343 207.971 233.608 219.949 232.192C234.415 230.487 245.665 226.32 253.367 219.804C254.239 219.062 256.88 218.676 261.213 218.645C265.075 218.619 267.586 218.889 268.71 219.44C268.777 219.46 268.843 219.485 268.907 219.513C269.813 219.62 270.729 219.62 271.635 219.513C273.331 218.567 279.006 217.877 281.481 217.612C290.138 216.692 291.746 217.495 292.256 217.838C293.52 218.315 301.523 218.58 302.779 218.272C303.424 218.094 306.357 218.073 306.383 218.073H319.991V220.911H306.383C305.847 220.911 303.873 220.976 303.446 221.033Z" fill="black"/>
<path d="M303.528 228.29C302.221 228.59 297.805 228.442 297.295 228.425C292.139 228.243 291.193 227.8 290.835 227.557C290.212 227.34 287.396 227.219 281.974 227.739C277.284 228.195 273.971 228.807 273.256 229.098C272.908 229.354 272.324 229.571 270.436 229.584C268.972 229.584 268.292 229.467 267.93 229.319C267.787 229.281 267.65 229.221 267.525 229.142C265.969 228.542 256.916 228.599 255.32 229.206C247.827 235.492 236.447 239.503 221.487 241.126C215.949 241.705 210.383 241.985 204.815 241.964C195.952 241.922 187.098 241.402 178.291 240.405C150.238 237.345 124.321 230.626 117.704 228.2C115.747 228.238 109.663 228.673 108.451 229.116C104.145 232.978 84.9962 233.652 75.3676 233.456C68.4547 233.321 56.6249 232.666 53.1992 229.849C53.0164 229.785 52.8472 229.686 52.7023 229.558C52.048 229.228 48.8926 228.807 43.9848 228.915C39.0762 229.024 36.0556 229.575 35.3583 229.958C32.5693 233.864 19.1747 233.351 14.1878 232.818C8.58695 232.214 1.64802 230.756 0.374758 227.223L3.13852 226.233C3.57389 227.462 7.32718 229.137 14.5019 229.906C18.5558 230.35 22.6442 230.389 26.7065 230.022C31.0653 229.589 32.704 228.673 32.9659 228.256C33.4408 227.5 34.5087 226.732 39.0459 226.272C42.0724 225.985 45.1141 225.903 48.1516 226.024C52.3276 226.202 53.7575 226.719 54.363 227.127C54.6046 227.206 54.8228 227.345 54.9954 227.531C56.1853 228.807 63.0804 230.287 75.4198 230.53C82.0632 230.675 88.7091 230.403 95.3179 229.714C104.088 228.711 106.102 227.314 106.511 226.906C106.995 226.429 107.775 225.998 112.504 225.603C114.889 225.395 117.36 225.282 117.957 225.282H118.227L118.481 225.378C124.334 227.604 150.809 234.494 178.601 237.51C203.799 240.258 237.244 240.648 253.503 226.91C253.843 226.619 254.758 225.851 261.348 225.812C262.822 225.812 267.045 225.777 268.758 226.528C268.836 226.549 268.911 226.575 268.985 226.606C269.9 226.704 270.824 226.704 271.74 226.606C273.387 225.764 278.504 225.161 281.569 224.87C290.164 224.033 291.751 224.731 292.291 225.083C293.682 225.551 301.676 225.721 302.752 225.491C303.371 225.317 306.327 225.304 306.357 225.304H319.869V228.23H306.357C305.934 228.182 303.951 228.23 303.528 228.29ZM268.989 226.589C269.082 226.635 269.17 226.69 269.251 226.754C269.17 226.687 269.082 226.629 268.989 226.58V226.589ZM271.465 226.788C271.537 226.73 271.614 226.677 271.696 226.632C271.614 226.674 271.537 226.723 271.465 226.78V226.788Z" fill="black"/>
<path d="M303.606 235.526C302.386 235.795 298.25 235.679 297.413 235.652C292.295 235.487 291.376 235.11 290.971 234.849C288.966 234.225 275.405 235.496 273.453 236.247C273.095 236.503 272.516 236.681 270.646 236.703C269.168 236.703 268.497 236.594 268.135 236.455C268 236.418 267.871 236.362 267.751 236.29C266.186 235.757 257.229 235.804 255.595 236.347C248.747 242.068 237.724 245.719 222.799 247.199C217.665 247.706 212.077 247.959 206.066 247.959C197.867 247.959 188.879 247.485 179.186 246.543C151.059 243.804 123.869 237.632 117.779 235.448C115.979 235.487 109.837 235.856 108.547 236.273C104.397 239.828 84.9743 240.414 75.1411 240.223C66.8118 240.058 56.4725 239.355 53.387 236.946C53.2068 236.885 53.04 236.792 52.8943 236.672C52.2139 236.377 49.067 236.004 44.1769 236.1C39.2859 236.195 36.2956 236.69 35.5588 237.032C32.7217 240.722 18.4245 240.097 13.547 239.572C5.72298 238.734 1.28591 237.006 0.36212 234.446L3.21266 233.425C3.38697 233.898 5.21771 235.34 11.5512 236.277C16.139 236.924 20.7798 237.122 25.4072 236.868C30.9912 236.529 32.8783 235.565 33.1318 235.231C33.6413 234.415 34.8008 233.79 38.7975 233.382C41.904 233.096 45.0249 233.003 48.1432 233.104C52.4539 233.256 53.9183 233.725 54.5457 234.125C54.8051 234.207 55.0367 234.357 55.2177 234.558C56.0893 235.492 62.1171 236.968 75.1933 237.223C91.6918 237.545 104.746 235.809 106.577 233.986C107.056 233.508 107.806 233.118 112.605 232.735C114.906 232.553 117.421 232.44 118.027 232.44H118.307L118.568 232.54C122.926 234.189 149.467 240.636 179.464 243.557C205.212 246.062 238.992 246.435 253.742 233.964C254.1 233.664 254.937 232.957 261.588 232.922C266.692 232.896 268.392 233.295 269.059 233.595L269.198 233.647C270.105 233.729 271.017 233.729 271.923 233.647C272.359 233.395 273.23 233.134 275.54 232.779C277.306 232.505 279.524 232.249 281.795 232.049C290.308 231.303 291.899 231.902 292.461 232.254C293.887 232.687 301.785 232.827 302.922 232.614C304.107 232.491 305.297 232.435 306.488 232.444H319.952V235.483H306.488C306.078 235.44 304.042 235.478 303.606 235.526Z" fill="black"/>
<path d="M303.69 242.776C302.495 243.014 298.385 242.91 297.544 242.888C292.514 242.745 291.537 242.411 291.119 242.155C289.061 241.604 275.619 242.741 273.631 243.418C273.265 243.657 272.672 243.822 270.837 243.852C270.013 243.909 269.185 243.837 268.383 243.64C268.231 243.609 268.084 243.554 267.947 243.479C266.352 243.002 257.512 243.045 255.821 243.527C246.424 251.34 227.795 253.971 207.147 253.971C169.265 253.971 124.605 245.059 117.792 242.719C116.005 242.754 109.946 243.084 108.594 243.453C107.823 244.139 105.592 245.489 95.7322 246.374C88.7621 246.947 81.7676 247.16 74.7756 247.012C70.213 246.957 65.6556 246.666 61.1234 246.144C56.2501 245.523 54.3848 244.742 53.4956 244.057C53.3288 244 53.1722 243.916 53.0332 243.809C52.3141 243.54 49.237 243.219 44.3158 243.305C39.5217 243.388 36.5221 243.818 35.712 244.125C35.1629 244.851 33.5587 246.17 26.693 246.648C22.0438 246.931 17.3777 246.83 12.7452 246.343C1.55619 245.142 0.618942 242.541 0.30989 241.682L3.24294 240.618C3.43915 240.996 5.18735 242.15 10.832 242.966C15.525 243.607 20.2652 243.829 24.9979 243.631C30.8168 243.371 32.9263 242.511 33.2791 242.186C33.7895 241.404 34.8227 240.883 38.453 240.51C41.6412 240.22 44.8429 240.12 48.0429 240.211C52.4758 240.327 53.9966 240.748 54.6552 241.131C54.928 241.209 55.1747 241.36 55.3701 241.565C56.464 242.628 65.1158 244.065 80.9339 243.922C96.752 243.778 105.474 242.155 106.594 241.043C107.03 240.61 107.414 240.232 112.666 239.863C115.085 239.689 117.57 239.598 118.049 239.598H118.341L118.607 239.702C122.621 241.226 150.064 246.999 180.284 249.599C227.921 253.697 246.633 247.195 253.947 241.017C254.313 240.705 255.072 240.063 261.793 240.032C266.784 240.006 268.501 240.345 269.203 240.632L269.36 240.684C270.288 240.759 271.221 240.759 272.149 240.684C272.912 240.336 275.052 239.816 281.97 239.255C290.373 238.595 291.995 239.094 292.575 239.442C294.039 239.82 301.902 239.954 302.988 239.763H302.931C303.506 239.603 306.492 239.598 306.523 239.598H319.917V242.711H306.523C306.161 242.697 304.104 242.732 303.69 242.776Z" fill="black"/>
<path d="M303.75 250.024C302.608 250.229 298.834 250.151 297.648 250.124C292.701 249.998 291.698 249.721 291.254 249.465C289.135 248.978 275.819 249.981 273.779 250.589C273.409 250.819 272.808 250.953 271.012 250.962C270.198 251.01 269.381 250.948 268.584 250.776C268.442 250.744 268.304 250.694 268.174 250.628C266.622 250.22 257.778 250.255 256.057 250.662C250.469 255.256 240.134 258.176 225.327 259.344C220.223 259.748 214.6 259.952 208.493 259.952C200.164 259.952 190.936 259.574 180.889 258.819C151.25 256.592 122.918 251.622 117.836 249.942C116.092 249.972 110.038 250.267 108.656 250.589C107.867 251.236 105.557 252.438 95.7061 253.193C89.4813 253.68 81.6926 253.875 74.3478 253.732C69.1175 253.632 64.4842 253.363 60.9887 252.954C56.3377 252.416 54.5373 251.743 53.6657 251.114C53.5099 251.062 53.3634 250.988 53.2295 250.893C51.0846 250.142 38.235 250.355 35.9209 251.166C35.328 251.895 33.6287 253.063 26.4623 253.449C21.5807 253.688 16.6872 253.555 11.8257 253.05C2.5895 252.06 0.815176 250.293 0.30065 248.865L3.32636 247.785C3.31457 247.752 3.30024 247.72 3.28255 247.689C3.28255 247.689 4.3899 249.022 12.0867 249.86C21.9899 250.932 32.0287 250.151 33.4754 249.066C33.968 248.358 34.9145 247.906 38.1221 247.58C41.3945 247.29 44.6796 247.181 47.9638 247.255C52.5929 247.351 54.1533 247.72 54.8295 248.089C55.1082 248.165 55.3609 248.315 55.5613 248.523C56.7562 249.447 65.4602 250.693 81.1385 250.567C96.8825 250.441 105.548 249.03 106.655 248.075C107.148 247.59 107.705 247.273 112.757 246.956C115.085 246.812 117.618 246.726 118.11 246.726H118.407L118.685 246.83C122.669 248.344 151.132 253.341 181.138 255.615C198.386 256.918 213.171 257.087 225.083 256.136C239.371 254.999 249.161 252.273 254.174 248.037C254.575 247.698 255.237 247.138 262.055 247.107C267.054 247.107 268.745 247.377 269.438 247.646L269.573 247.684C270.514 247.754 271.458 247.754 272.398 247.684C273.2 247.355 275.357 246.89 282.205 246.413C290.456 245.84 292.126 246.252 292.732 246.587C294.135 246.89 301.968 247.055 303.131 246.868H303.049C303.589 246.721 306.326 246.717 306.636 246.717H319.961V249.916H306.636C306.231 249.95 304.151 249.994 303.75 250.024ZM303.75 250.024C303.8 250.018 303.85 250.007 303.899 249.994L303.75 250.024Z" fill="black"/>
<path d="M303.803 257.274C303.871 257.266 303.938 257.251 304.003 257.231C303.938 257.25 303.871 257.265 303.803 257.274C302.704 257.443 299.274 257.391 297.774 257.356C292.941 257.252 291.877 257.022 291.415 256.778C289.31 256.375 275.942 257.247 273.932 257.764C273.536 257.985 272.908 258.085 271.199 258.09C270.399 258.135 269.597 258.081 268.811 257.929C268.668 257.901 268.528 257.856 268.397 257.795C266.814 257.438 258.079 257.464 256.288 257.825C251.253 261.905 241.538 264.392 226.6 265.439C221.506 265.795 215.878 265.972 209.715 265.972C201.324 265.972 191.974 265.639 181.748 264.979C152.196 263.069 122.984 258.841 117.875 257.213C116.24 257.243 110.151 257.486 108.7 257.773C107.885 258.398 105.527 259.431 95.6236 260.091C89.2076 260.525 81.2396 260.672 73.76 260.525C58.6998 260.229 54.9912 259.018 53.8139 258.242C53.6606 258.198 53.5141 258.134 53.3777 258.051C51.1983 257.391 38.4531 257.578 36.0472 258.285C35.3979 259.002 33.5453 260.021 26.0615 260.317C20.9288 260.508 15.7887 260.344 10.6788 259.826C2.33181 258.932 0.714958 257.448 0.218116 256.119L3.33052 255.004C3.30357 254.926 3.26403 254.855 3.21266 254.791C3.97055 255.547 9.15792 256.74 18.3066 257.039C27.12 257.326 32.5735 256.605 33.6194 255.994C34.1693 255.277 35.1891 254.969 37.691 254.717C41.0434 254.429 44.4084 254.314 47.7727 254.374C52.4884 254.444 54.1491 254.756 54.8817 255.099C55.1764 255.169 55.4467 255.319 55.6615 255.533C56.9474 256.331 65.6429 257.391 81.1823 257.269C96.7217 257.147 105.452 255.968 106.673 255.13C107.134 254.695 107.518 254.396 112.797 254.109C115.224 253.979 117.726 253.905 118.115 253.905H118.419L118.702 254.014C121.623 255.125 150.444 259.657 181.936 261.684C220.659 264.184 246.38 261.853 254.352 255.112C254.788 254.756 255.351 254.266 262.238 254.244C267.133 254.244 268.837 254.461 269.565 254.713L269.704 254.752C270.659 254.813 271.617 254.813 272.572 254.752C273.401 254.44 275.558 254.053 282.366 253.64C290.482 253.15 292.178 253.471 292.827 253.792C294.27 254.061 302.055 254.227 303.219 254.035L303.105 254.061C304.297 253.939 305.495 253.891 306.693 253.919H319.943V257.213H306.693C306.366 257.209 304.178 257.239 303.803 257.274Z" fill="black"/>
<path d="M303.868 264.523C303.868 264.523 303.973 264.523 304.104 264.475C303.45 264.657 300.368 264.64 297.897 264.592C293.167 264.506 292.065 264.323 291.576 264.093C289.397 263.742 276.116 264.488 274.071 264.939C273.636 265.152 273.004 265.218 271.386 265.222C270.592 265.265 269.795 265.216 269.011 265.078C268.885 265.058 268.762 265.022 268.645 264.97C267.128 264.666 258.354 264.692 256.506 264.992C252.082 268.49 242.701 270.634 227.864 271.503C222.787 271.807 217.128 271.937 210.931 271.937C202.474 271.937 193.003 271.655 182.599 271.069C152.205 269.415 122.608 265.773 117.914 264.41C116.296 264.436 110.225 264.644 108.73 264.892C107.88 265.495 105.496 266.351 95.4055 266.902C88.8413 267.257 80.4463 267.384 72.9398 267.236C58.6695 266.958 55.1166 265.998 53.9528 265.291C53.8206 265.252 53.6935 265.198 53.5739 265.13C51.4425 264.579 38.645 264.74 36.1869 265.33C35.472 266.029 33.4712 266.88 25.5646 267.097C20.1642 267.238 14.7604 267.045 9.38442 266.52C1.68253 265.695 0.606319 264.418 0.196214 263.285L3.39539 262.144C3.35413 262.006 3.2758 261.882 3.16885 261.783C3.92759 262.387 8.75706 263.438 18.4733 263.702C27.2514 263.941 32.7217 263.333 33.8459 262.834C34.4303 262.174 35.4459 261.966 37.3112 261.775C39.744 261.528 43.7886 261.388 47.6109 261.424C52.4842 261.471 54.2324 261.731 55.0215 262.048C55.3171 262.107 55.5924 262.244 55.819 262.443C57.392 263.233 67.2775 263.997 81.3086 263.919C95.8973 263.837 105.283 262.934 106.781 262.122C107.252 261.689 107.705 261.45 112.905 261.211C115.299 261.098 117.822 261.037 118.189 261.037H118.502L118.794 261.146C121.528 262.188 151.847 266.016 182.803 267.7C236.111 270.604 250.665 265.461 254.601 262.136C255.037 261.749 255.534 261.346 262.495 261.324C267.446 261.324 269.107 261.502 269.813 261.731L269.9 261.753C270.879 261.812 271.86 261.812 272.838 261.753C273.71 261.467 275.889 261.15 282.597 260.803C290.53 260.395 292.291 260.638 292.958 260.937C294.475 261.185 302.399 261.267 303.354 261.146C303.316 261.149 303.277 261.156 303.24 261.167C303.402 261.128 303.934 261.046 306.789 261.046H319.969V264.432H306.789C306.444 264.466 304.208 264.492 303.868 264.523Z" fill="black"/>
<path d="M303.933 271.767L304.108 271.741C303.812 271.798 302.8 271.902 298.006 271.828C293.429 271.759 292.256 271.62 291.742 271.394C289.606 271.104 276.216 271.729 274.189 272.102C273.754 272.289 273.1 272.332 271.574 272.336C270.808 272.369 270.04 272.331 269.281 272.223C269.144 272.207 269.009 272.174 268.88 272.124C267.363 271.876 258.615 271.894 256.728 272.124C251.589 276.03 236.761 277.966 212.513 277.966C203.992 277.966 194.31 277.725 183.465 277.241C153.682 275.913 122.682 272.935 117.966 271.693C116.38 271.715 110.269 271.894 108.76 272.093C107.863 272.657 105.361 273.348 95.0653 273.791C88.1693 274.09 79.4914 274.177 71.8459 274.029C58.8699 273.773 55.3743 273.053 54.1668 272.431C54.032 272.402 53.9015 272.355 53.7794 272.293C51.6741 271.859 38.7933 271.976 36.3133 272.457C35.5066 273.122 33.2842 273.808 24.9238 273.947C19.2497 274.052 13.5739 273.839 7.92423 273.304C2.01434 272.67 0.640859 271.846 0.170123 270.539L3.45688 269.363C3.38952 269.159 3.26317 268.98 3.09474 268.846C3.87959 269.345 8.79244 270.227 18.6164 270.448C27.4038 270.643 32.896 270.144 34.0901 269.723C34.6265 269.202 35.4678 269.028 36.9238 268.881C39.1857 268.651 43.3002 268.517 47.3844 268.533C52.4059 268.559 54.2543 268.759 55.0863 269.05C55.3828 269.096 55.6615 269.217 55.8973 269.401C57.5537 270.057 67.4047 270.682 81.3785 270.617C95.8889 270.548 105.235 269.814 106.851 269.146C107.322 268.712 107.901 268.551 112.954 268.36C115.364 268.264 117.888 268.212 118.184 268.212H118.502L118.803 268.326C121.235 269.193 151.694 272.353 183.819 273.777C223.396 275.513 249.261 273.869 254.771 269.207C255.259 268.798 255.643 268.473 262.678 268.451C267.377 268.451 269.098 268.577 269.87 268.781L270.018 268.812C270.571 268.86 272.468 268.855 273.03 268.812C273.932 268.551 276.151 268.304 282.754 268.022C290.408 267.691 292.287 267.865 293.002 268.13C294.419 268.321 302.386 268.421 303.432 268.308H303.384C304.528 268.214 305.676 268.184 306.824 268.217H319.934V271.689H306.824C306.501 271.72 304.265 271.741 303.933 271.767Z" fill="black"/>
<path d="M303.995 279.016C304.064 279.011 304.132 279.001 304.199 278.986C303.894 279.042 302.94 279.121 298.136 279.064C293.695 279.008 292.47 278.922 291.938 278.73C289.759 278.491 276.247 279.012 274.316 279.299C273.88 279.459 273.209 279.477 271.753 279.481C271.009 279.511 270.265 279.483 269.525 279.399C269.392 279.384 269.261 279.356 269.133 279.317C267.673 279.116 258.89 279.13 256.928 279.317C254.749 280.891 249.305 282.91 230.388 283.657C225.335 283.857 219.658 283.957 213.358 283.961C204.776 283.961 195.051 283.77 184.312 283.392C153.499 282.311 122.617 279.954 118.058 278.952C116.632 278.952 110.299 279.108 108.765 279.277C107.789 279.785 105.055 280.319 94.4901 280.657C87.0796 280.891 78.053 280.944 70.277 280.792C58.7958 280.566 55.5486 280.071 54.3629 279.546C54.2434 279.521 54.1271 279.484 54.0143 279.438C51.909 279.052 38.9507 279.164 36.4177 279.568C35.5023 280.18 33.0088 280.696 24.117 280.766C18.1768 280.84 12.2375 280.615 6.31999 280.089C2.05304 279.628 0.606292 279.09 0.131345 277.771L3.50481 276.564C3.41217 276.28 3.22441 276.037 2.97262 275.874C3.76588 276.282 8.74862 276.994 18.7343 277.176C27.6177 277.332 33.1444 276.933 34.3646 276.594C34.9448 276.135 35.7558 276.052 36.544 275.974C39.0029 275.722 43.7886 275.644 47.1402 275.648C52.3705 275.648 54.3192 275.796 55.1958 276.056C55.4787 276.091 55.7482 276.192 55.984 276.351C57.6404 276.864 66.9819 277.363 81.4964 277.315C95.9461 277.259 105.265 276.686 106.982 276.156C107.462 275.761 108.185 275.653 113.049 275.505C115.534 275.431 118.031 275.392 118.28 275.392H118.611L118.89 275.497C121.314 276.187 152.109 278.717 185.074 279.837C242.074 281.808 252.992 277.992 255.041 276.265C255.577 275.83 255.847 275.579 262.957 275.565C267.525 275.565 269.264 275.648 270.057 275.822C270.116 275.827 270.174 275.837 270.232 275.852C270.789 275.892 272.808 275.887 273.335 275.852C274.277 275.618 276.53 275.445 283.007 275.223C290.417 274.967 292.374 275.071 293.133 275.305C294.514 275.461 302.604 275.544 303.594 275.449H303.476C304.635 275.351 305.8 275.324 306.963 275.366H320V278.934H306.963C306.636 278.978 304.322 278.995 303.995 279.016Z" fill="black"/>
<path d="M304.056 286.261C304.137 286.258 304.217 286.246 304.295 286.227C304.003 286.287 303.153 286.343 298.258 286.296C294.03 286.257 292.74 286.209 292.156 286.048C290.068 285.862 276.273 286.261 274.407 286.483C273.971 286.613 273.283 286.613 271.944 286.618C271.217 286.642 270.49 286.621 269.765 286.556C269.64 286.546 269.516 286.526 269.395 286.496C267.991 286.339 259.199 286.348 257.138 286.496C255.394 287.707 249.388 290.003 214.857 290.003C206.663 290.003 196.869 289.873 185.144 289.569C155.552 288.805 122.988 287.065 118.119 286.239C116.811 286.239 110.19 286.357 108.686 286.487C107.588 286.921 104.558 287.308 93.4307 287.546C85.3844 287.715 75.5941 287.729 67.8838 287.576C58.6173 287.394 55.6792 287.095 54.5499 286.708C54.4345 286.69 54.3208 286.66 54.2105 286.622C52.2055 286.339 38.8152 286.426 36.4135 286.726C35.3364 287.26 32.491 287.594 23.067 287.62C15.7221 287.62 8.5002 287.372 4.64252 286.956C2.18863 286.696 0.540626 286.417 0.0437842 285.042L3.50483 283.804C3.38188 283.43 3.1183 283.119 2.76798 282.936C3.74483 283.327 9.6943 283.804 18.7865 283.926C27.0029 284.03 33.2185 283.783 34.6088 283.492C35.0888 283.226 35.6253 283.078 36.1735 283.058C38.235 282.845 43.1781 282.772 46.7874 282.767C52.1575 282.767 54.2366 282.85 55.1907 283.071C55.4594 283.091 55.7204 283.167 55.9587 283.292C57.584 283.678 66.9339 284.056 81.5486 284.017C95.9848 283.978 105.277 283.557 107.078 283.149C107.575 282.81 108.469 282.758 113.076 282.654C115.626 282.597 118.101 282.567 118.249 282.567H118.589L118.829 282.658C121.318 283.183 152.339 285.068 186.129 285.922C204.797 286.396 220.188 286.452 231.865 286.088C251.214 285.485 254.605 283.839 255.185 283.353C255.765 282.866 255.926 282.724 263.109 282.71C267.555 282.71 269.303 282.758 270.123 282.902C270.179 282.898 270.236 282.898 270.292 282.902C270.837 282.936 273.108 282.932 273.553 282.902C274.551 282.706 276.857 282.593 283.142 282.433C290.204 282.255 292.296 282.303 293.111 282.493C294.358 282.615 302.7 282.68 303.681 282.606H303.589C303.868 282.567 304.513 282.545 306.972 282.545H319.939V286.209H306.972C306.688 286.235 304.356 286.249 304.056 286.261ZM273.23 283.006C273.343 282.97 273.458 282.941 273.575 282.919C273.457 282.933 273.341 282.963 273.23 283.006Z" fill="black"/>
<path d="M304.125 293.51C304.212 293.506 304.298 293.496 304.382 293.48C304.069 293.532 303.219 293.562 298.398 293.532C294.379 293.51 293.028 293.498 292.4 293.371C290.578 293.259 276.312 293.488 274.477 293.658C273.702 293.745 272.921 293.774 272.141 293.745C271.116 293.745 270.502 293.745 270.088 293.706C269.963 293.701 269.839 293.689 269.717 293.667C268.409 293.558 259.422 293.562 257.334 293.667C255.66 294.609 249.701 296.011 216.54 296.011C208.215 296.011 198.168 295.92 186.029 295.716C171.122 295.463 154.306 295.03 139.886 294.531C123.502 293.962 119.4 293.662 118.18 293.493C116.785 293.493 109.898 293.576 108.59 293.667C107.283 294.036 103.717 294.252 91.6522 294.392C82.4463 294.5 71.7457 294.474 64.3882 294.33C58.1684 294.209 55.8535 294.07 54.8253 293.801C54.715 293.79 54.6055 293.772 54.4977 293.745C52.6063 293.536 38.7714 293.597 36.448 293.819C35.6901 294.109 34.352 294.2 31.5141 294.292C29.0341 294.374 25.6126 294.409 21.8813 294.404C15.5781 294.404 6.89095 294.231 3.13852 293.831C1.83074 293.693 0.46653 293.545 3.84985e-06 292.251L3.54863 290.984C3.46863 290.751 3.33894 290.538 3.16799 290.36C2.99704 290.183 2.78906 290.044 2.55832 289.955C4.92548 290.645 31.5141 290.941 34.9625 290.328C35.2724 290.197 35.6017 290.117 35.9385 290.094C37.4855 289.938 42.5684 289.877 46.4472 289.868C51.9571 289.868 54.171 289.89 55.2084 290.063C55.4602 290.072 55.7095 290.121 55.9453 290.211C59.8678 290.897 102.845 290.819 107.274 290.129C107.823 289.877 108.948 289.86 113.15 289.799C115.621 289.76 118.163 289.742 118.285 289.742H118.628L118.812 289.808C121.64 290.199 153.839 291.418 186.207 291.978C245.691 292.985 254.243 291.04 255.438 290.394C256.026 289.899 256.262 289.856 263.327 289.851C267.629 289.851 269.386 289.851 270.232 289.973H270.415C270.938 289.999 273.418 289.995 273.801 289.973C273.683 289.985 273.566 290.009 273.453 290.047C274.281 289.829 276.329 289.782 283.33 289.664C289.959 289.552 292.156 289.552 293.076 289.694L293.263 289.73C293.172 289.708 293.102 289.7 293.076 289.694C293.948 289.782 302.927 289.829 303.803 289.777H303.715C304.016 289.742 304.683 289.738 307.033 289.738H319.93V293.488H307.033C306.741 293.488 304.382 293.498 304.125 293.51Z" fill="black"/>
<path d="M3.61853 298.177C3.51495 297.887 3.34148 297.628 3.11327 297.421C2.88506 297.214 2.60969 297.067 2.31074 296.991C4.30653 297.348 32.4648 297.508 35.4375 297.187C35.5798 297.147 35.7255 297.119 35.8729 297.105C37.0148 296.987 44.5903 296.975 46.1204 296.97C48.4918 296.97 50.7015 296.97 52.3453 296.97C53.2169 296.97 53.9048 296.97 54.4067 297.001C54.7461 297.001 55.0383 297.001 55.2783 297.048C55.472 297.048 55.6648 297.069 55.8535 297.113C59.1924 297.478 104.166 297.434 107.679 297.065C108.371 296.968 109.069 296.93 109.768 296.953L113.254 296.918C115.769 296.897 118.289 296.887 118.349 296.887H118.707L118.808 296.927C121.859 297.122 153.573 297.717 186.39 297.994C244.898 298.489 254.387 297.595 255.904 297.252C256.318 296.979 256.776 296.975 258.986 296.953C260.198 296.953 261.828 296.953 263.58 296.953C267.647 296.953 269.438 296.953 270.336 297.031H270.366C270.429 297.027 270.492 297.027 270.554 297.031C270.99 297.031 273.758 297.031 274.093 297.031C273.983 297.038 273.873 297.056 273.766 297.083C274.89 296.97 276.02 296.926 277.149 296.949C278.858 296.923 281.194 296.897 283.556 296.879C291.223 296.814 292.945 296.801 293.616 296.996C293.464 296.939 293.304 296.903 293.141 296.892C293.886 296.939 303.288 296.961 303.981 296.935H303.794C304.073 296.901 304.688 296.901 307.137 296.901H319.965V300.747H304.165C303.637 300.777 302.351 300.777 298.498 300.747C294.074 300.747 292.858 300.747 292.313 300.582C292.454 300.631 292.6 300.662 292.749 300.673C291.716 300.603 275.632 300.729 274.442 300.816C274.489 300.821 274.535 300.821 274.581 300.816C273.829 300.871 273.074 300.888 272.319 300.868C271.352 300.868 270.746 300.868 270.345 300.847H270.314C270.233 300.851 270.152 300.851 270.07 300.847C269.878 300.826 269.69 300.778 269.512 300.703C269.688 300.783 269.877 300.831 270.07 300.847C269.155 300.789 259.356 300.789 257.386 300.847C255.961 301.337 251.654 301.754 234.184 301.932C229.272 301.98 223.527 302.005 217.085 302.005C208.227 302.005 198.05 301.958 186.896 301.866C171.679 301.741 154.576 301.523 139.978 301.276C124.064 301.002 119.705 300.863 118.354 300.751C117.452 300.751 109.876 300.789 108.56 300.842C107.745 300.994 106.106 301.033 102.17 301.098C98.6829 301.154 93.8577 301.194 88.2484 301.216C76.7806 301.263 65.1461 301.215 59.3448 301.098C57.9377 301.115 56.5305 301.051 55.1301 300.907C55.0383 300.905 54.9465 300.899 54.8556 300.885C53.3777 300.769 38.2922 300.803 36.3739 300.92C35.8164 301.025 35.2505 301.077 34.683 301.076C33.8552 301.112 32.6779 301.138 31.1958 301.159C28.3891 301.198 24.6013 301.215 20.5255 301.202C13.408 301.202 4.30233 301.076 2.06233 300.833C1.62612 300.785 0.432026 300.659 0.00507845 299.479L3.61853 298.177ZM54.8295 300.881C54.6652 300.857 54.5061 300.812 54.3537 300.747C54.5053 300.813 54.6652 300.857 54.8295 300.877V300.881Z" fill="black"/>
<path d="M1.80046 304.063H319.957V308H1.80046V304.063Z" fill="black"/>
</svg>
